<mxfile host="app.diagrams.net" modified="2021-03-22T12:35:56.377Z" agent="5.0 (Windows NT 10.0; Win64; x64) AppleWebKit/537.36 (KHTML, like Gecko) Chrome/89.0.4389.90 Safari/537.36" etag="VC6CsUluAgBZU6HZr04f" version="14.4.9" type="github" pages="2">
  <diagram id="C5RBs43oDa-KdzZeNtuy" name="Page-1">
    <mxGraphModel dx="2664" dy="970" grid="1" gridSize="10" guides="1" tooltips="1" connect="1" arrows="1" fold="1" page="1" pageScale="1" pageWidth="827" pageHeight="1169" math="0" shadow="0">
      <root>
        <mxCell id="WIyWlLk6GJQsqaUBKTNV-0" />
        <mxCell id="WIyWlLk6GJQsqaUBKTNV-1" parent="WIyWlLk6GJQsqaUBKTNV-0" />
        <mxCell id="zkfFHV4jXpPFQw0GAbJ--0" value="Personne" style="swimlane;fontStyle=2;align=center;verticalAlign=top;childLayout=stackLayout;horizontal=1;startSize=26;horizontalStack=0;resizeParent=1;resizeLast=0;collapsible=1;marginBottom=0;rounded=0;shadow=0;strokeWidth=1;fillColor=#0050ef;strokeColor=#001DBC;fontColor=#ffffff;" parent="WIyWlLk6GJQsqaUBKTNV-1" vertex="1">
          <mxGeometry x="320" y="10" width="160" height="240" as="geometry">
            <mxRectangle x="230" y="140" width="160" height="26" as="alternateBounds" />
          </mxGeometry>
        </mxCell>
        <mxCell id="zkfFHV4jXpPFQw0GAbJ--1" value="Prenom" style="text;align=left;verticalAlign=top;spacingLeft=4;spacingRight=4;overflow=hidden;rotatable=0;points=[[0,0.5],[1,0.5]];portConstraint=eastwest;" parent="zkfFHV4jXpPFQw0GAbJ--0" vertex="1">
          <mxGeometry y="26" width="160" height="26" as="geometry" />
        </mxCell>
        <mxCell id="zkfFHV4jXpPFQw0GAbJ--2" value="Nom" style="text;align=left;verticalAlign=top;spacingLeft=4;spacingRight=4;overflow=hidden;rotatable=0;points=[[0,0.5],[1,0.5]];portConstraint=eastwest;rounded=0;shadow=0;html=0;" parent="zkfFHV4jXpPFQw0GAbJ--0" vertex="1">
          <mxGeometry y="52" width="160" height="26" as="geometry" />
        </mxCell>
        <mxCell id="Rp97zshGSxgJkGg2U5Pg-176" value="Sexe" style="text;align=left;verticalAlign=top;spacingLeft=4;spacingRight=4;overflow=hidden;rotatable=0;points=[[0,0.5],[1,0.5]];portConstraint=eastwest;rounded=0;shadow=0;html=0;" parent="zkfFHV4jXpPFQw0GAbJ--0" vertex="1">
          <mxGeometry y="78" width="160" height="26" as="geometry" />
        </mxCell>
        <mxCell id="zkfFHV4jXpPFQw0GAbJ--3" value="Pays d&#39;origine" style="text;align=left;verticalAlign=top;spacingLeft=4;spacingRight=4;overflow=hidden;rotatable=0;points=[[0,0.5],[1,0.5]];portConstraint=eastwest;rounded=0;shadow=0;html=0;" parent="zkfFHV4jXpPFQw0GAbJ--0" vertex="1">
          <mxGeometry y="104" width="160" height="32" as="geometry" />
        </mxCell>
        <mxCell id="Rp97zshGSxgJkGg2U5Pg-2" value="Nombre d&#39;annee au Maroc" style="text;align=left;verticalAlign=top;spacingLeft=4;spacingRight=4;overflow=hidden;rotatable=0;points=[[0,0.5],[1,0.5]];portConstraint=eastwest;rounded=0;shadow=0;html=0;" parent="zkfFHV4jXpPFQw0GAbJ--0" vertex="1">
          <mxGeometry y="136" width="160" height="26" as="geometry" />
        </mxCell>
        <mxCell id="Rp97zshGSxgJkGg2U5Pg-3" value="Date" style="text;align=left;verticalAlign=top;spacingLeft=4;spacingRight=4;overflow=hidden;rotatable=0;points=[[0,0.5],[1,0.5]];portConstraint=eastwest;rounded=0;shadow=0;html=0;" parent="zkfFHV4jXpPFQw0GAbJ--0" vertex="1">
          <mxGeometry y="162" width="160" height="26" as="geometry" />
        </mxCell>
        <mxCell id="Rp97zshGSxgJkGg2U5Pg-4" value="Numero telephone" style="text;align=left;verticalAlign=top;spacingLeft=4;spacingRight=4;overflow=hidden;rotatable=0;points=[[0,0.5],[1,0.5]];portConstraint=eastwest;rounded=0;shadow=0;html=0;" parent="zkfFHV4jXpPFQw0GAbJ--0" vertex="1">
          <mxGeometry y="188" width="160" height="26" as="geometry" />
        </mxCell>
        <mxCell id="Rp97zshGSxgJkGg2U5Pg-5" value="Email" style="text;align=left;verticalAlign=top;spacingLeft=4;spacingRight=4;overflow=hidden;rotatable=0;points=[[0,0.5],[1,0.5]];portConstraint=eastwest;rounded=0;shadow=0;html=0;" parent="zkfFHV4jXpPFQw0GAbJ--0" vertex="1">
          <mxGeometry y="214" width="160" height="26" as="geometry" />
        </mxCell>
        <mxCell id="zkfFHV4jXpPFQw0GAbJ--6" value="Etudiant" style="swimlane;fontStyle=0;align=center;verticalAlign=top;childLayout=stackLayout;horizontal=1;startSize=26;horizontalStack=0;resizeParent=1;resizeLast=0;collapsible=1;marginBottom=0;rounded=0;shadow=0;strokeWidth=1;fillColor=#e51400;strokeColor=#B20000;fontColor=#ffffff;" parent="WIyWlLk6GJQsqaUBKTNV-1" vertex="1">
          <mxGeometry x="500" y="450" width="160" height="194" as="geometry">
            <mxRectangle x="130" y="380" width="160" height="26" as="alternateBounds" />
          </mxGeometry>
        </mxCell>
        <mxCell id="zkfFHV4jXpPFQw0GAbJ--7" value="id(numéro téléphone)" style="text;align=left;verticalAlign=top;spacingLeft=4;spacingRight=4;overflow=hidden;rotatable=0;points=[[0,0.5],[1,0.5]];portConstraint=eastwest;fillColor=#d5e8d4;strokeColor=#82b366;gradientColor=#97d077;" parent="zkfFHV4jXpPFQw0GAbJ--6" vertex="1">
          <mxGeometry y="26" width="160" height="26" as="geometry" />
        </mxCell>
        <mxCell id="Rp97zshGSxgJkGg2U5Pg-125" value="Ville d&#39;étude" style="text;align=left;verticalAlign=top;spacingLeft=4;spacingRight=4;overflow=hidden;rotatable=0;points=[[0,0.5],[1,0.5]];portConstraint=eastwest;" parent="zkfFHV4jXpPFQw0GAbJ--6" vertex="1">
          <mxGeometry y="52" width="160" height="26" as="geometry" />
        </mxCell>
        <mxCell id="Rp97zshGSxgJkGg2U5Pg-126" value="Etablissement" style="text;align=left;verticalAlign=top;spacingLeft=4;spacingRight=4;overflow=hidden;rotatable=0;points=[[0,0.5],[1,0.5]];portConstraint=eastwest;" parent="zkfFHV4jXpPFQw0GAbJ--6" vertex="1">
          <mxGeometry y="78" width="160" height="26" as="geometry" />
        </mxCell>
        <mxCell id="Rp97zshGSxgJkGg2U5Pg-127" value="Filiere&#xa;statut_inscription &#xa;&#xa;date_inscription&#xa;&#xa;nbre_annee_au_maroc&#xa;" style="text;align=left;verticalAlign=top;spacingLeft=4;spacingRight=4;overflow=hidden;rotatable=0;points=[[0,0.5],[1,0.5]];portConstraint=eastwest;" parent="zkfFHV4jXpPFQw0GAbJ--6" vertex="1">
          <mxGeometry y="104" width="160" height="86" as="geometry" />
        </mxCell>
        <mxCell id="zkfFHV4jXpPFQw0GAbJ--12" value="" style="endArrow=block;endSize=10;endFill=0;shadow=0;strokeWidth=1;rounded=0;edgeStyle=elbowEdgeStyle;elbow=vertical;" parent="WIyWlLk6GJQsqaUBKTNV-1" source="zkfFHV4jXpPFQw0GAbJ--6" target="zkfFHV4jXpPFQw0GAbJ--0" edge="1">
          <mxGeometry width="160" relative="1" as="geometry">
            <mxPoint x="200" y="203" as="sourcePoint" />
            <mxPoint x="200" y="203" as="targetPoint" />
            <Array as="points">
              <mxPoint x="580" y="350" />
            </Array>
          </mxGeometry>
        </mxCell>
        <mxCell id="zkfFHV4jXpPFQw0GAbJ--13" value="Equipe" style="swimlane;fontStyle=0;align=center;verticalAlign=top;childLayout=stackLayout;horizontal=1;startSize=26;horizontalStack=0;resizeParent=1;resizeLast=0;collapsible=1;marginBottom=0;rounded=0;shadow=0;strokeWidth=1;fillColor=#f0a30a;strokeColor=#BD7000;fontColor=#ffffff;" parent="WIyWlLk6GJQsqaUBKTNV-1" vertex="1">
          <mxGeometry x="40" y="460" width="160" height="130" as="geometry">
            <mxRectangle x="340" y="380" width="170" height="26" as="alternateBounds" />
          </mxGeometry>
        </mxCell>
        <mxCell id="zkfFHV4jXpPFQw0GAbJ--14" value="id(auto-incrémenté)" style="text;align=left;verticalAlign=top;spacingLeft=4;spacingRight=4;overflow=hidden;rotatable=0;points=[[0,0.5],[1,0.5]];portConstraint=eastwest;fillColor=#ffff88;strokeColor=#36393d;" parent="zkfFHV4jXpPFQw0GAbJ--13" vertex="1">
          <mxGeometry y="26" width="160" height="26" as="geometry" />
        </mxCell>
        <mxCell id="Rp97zshGSxgJkGg2U5Pg-6" value="poste" style="text;align=left;verticalAlign=top;spacingLeft=4;spacingRight=4;overflow=hidden;rotatable=0;points=[[0,0.5],[1,0.5]];portConstraint=eastwest;" parent="zkfFHV4jXpPFQw0GAbJ--13" vertex="1">
          <mxGeometry y="52" width="160" height="26" as="geometry" />
        </mxCell>
        <mxCell id="Rp97zshGSxgJkGg2U5Pg-7" value="photo" style="text;align=left;verticalAlign=top;spacingLeft=4;spacingRight=4;overflow=hidden;rotatable=0;points=[[0,0.5],[1,0.5]];portConstraint=eastwest;" parent="zkfFHV4jXpPFQw0GAbJ--13" vertex="1">
          <mxGeometry y="78" width="160" height="26" as="geometry" />
        </mxCell>
        <mxCell id="Rp97zshGSxgJkGg2U5Pg-128" value="description" style="text;align=left;verticalAlign=top;spacingLeft=4;spacingRight=4;overflow=hidden;rotatable=0;points=[[0,0.5],[1,0.5]];portConstraint=eastwest;" parent="zkfFHV4jXpPFQw0GAbJ--13" vertex="1">
          <mxGeometry y="104" width="160" height="26" as="geometry" />
        </mxCell>
        <mxCell id="zkfFHV4jXpPFQw0GAbJ--16" value="" style="endArrow=block;endSize=10;endFill=0;shadow=0;strokeWidth=1;rounded=0;edgeStyle=elbowEdgeStyle;elbow=vertical;" parent="WIyWlLk6GJQsqaUBKTNV-1" source="zkfFHV4jXpPFQw0GAbJ--13" target="zkfFHV4jXpPFQw0GAbJ--0" edge="1">
          <mxGeometry width="160" relative="1" as="geometry">
            <mxPoint x="210" y="373" as="sourcePoint" />
            <mxPoint x="310" y="271" as="targetPoint" />
            <Array as="points">
              <mxPoint x="260" y="350" />
            </Array>
          </mxGeometry>
        </mxCell>
        <mxCell id="Rp97zshGSxgJkGg2U5Pg-19" value="" style="endArrow=open;shadow=0;strokeWidth=1;rounded=0;endFill=1;edgeStyle=elbowEdgeStyle;elbow=vertical;entryX=0.5;entryY=0;entryDx=0;entryDy=0;" parent="WIyWlLk6GJQsqaUBKTNV-1" source="zkfFHV4jXpPFQw0GAbJ--6" target="Rp97zshGSxgJkGg2U5Pg-23" edge="1">
          <mxGeometry x="0.5" y="41" relative="1" as="geometry">
            <mxPoint x="490" y="530" as="sourcePoint" />
            <mxPoint x="300" y="752" as="targetPoint" />
            <mxPoint x="-40" y="32" as="offset" />
            <Array as="points">
              <mxPoint x="1150" y="460" />
              <mxPoint x="1130" y="500" />
              <mxPoint x="1090" y="490" />
              <mxPoint x="840" y="460" />
              <mxPoint x="260" y="490" />
            </Array>
          </mxGeometry>
        </mxCell>
        <mxCell id="Rp97zshGSxgJkGg2U5Pg-20" value="1" style="resizable=0;align=left;verticalAlign=bottom;labelBackgroundColor=none;fontSize=12;" parent="Rp97zshGSxgJkGg2U5Pg-19" connectable="0" vertex="1">
          <mxGeometry x="-1" relative="1" as="geometry">
            <mxPoint x="10" as="offset" />
          </mxGeometry>
        </mxCell>
        <mxCell id="Rp97zshGSxgJkGg2U5Pg-21" value="*" style="resizable=0;align=right;verticalAlign=bottom;labelBackgroundColor=none;fontSize=25;" parent="Rp97zshGSxgJkGg2U5Pg-19" connectable="0" vertex="1">
          <mxGeometry x="1" relative="1" as="geometry">
            <mxPoint x="-7" y="-10.18" as="offset" />
          </mxGeometry>
        </mxCell>
        <mxCell id="Rp97zshGSxgJkGg2U5Pg-22" value="participation avec une ou des&amp;nbsp;" style="text;html=1;resizable=0;points=[];;align=center;verticalAlign=middle;labelBackgroundColor=none;rounded=0;shadow=0;strokeWidth=1;fontSize=12;" parent="Rp97zshGSxgJkGg2U5Pg-19" vertex="1" connectable="0">
          <mxGeometry x="0.5" y="49" relative="1" as="geometry">
            <mxPoint x="2.349999999999966" y="39" as="offset" />
          </mxGeometry>
        </mxCell>
        <mxCell id="Rp97zshGSxgJkGg2U5Pg-23" value="Cotisation" style="swimlane;fontStyle=0;align=center;verticalAlign=top;childLayout=stackLayout;horizontal=1;startSize=26;horizontalStack=0;resizeParent=1;resizeLast=0;collapsible=1;marginBottom=0;rounded=0;shadow=0;strokeWidth=1;fillColor=#a20025;strokeColor=#6F0000;fontColor=#ffffff;" parent="WIyWlLk6GJQsqaUBKTNV-1" vertex="1">
          <mxGeometry x="1640" y="700" width="160" height="220" as="geometry">
            <mxRectangle x="550" y="140" width="160" height="26" as="alternateBounds" />
          </mxGeometry>
        </mxCell>
        <mxCell id="Rp97zshGSxgJkGg2U5Pg-24" value="id" style="text;align=left;verticalAlign=top;spacingLeft=4;spacingRight=4;overflow=hidden;rotatable=0;points=[[0,0.5],[1,0.5]];portConstraint=eastwest;fillColor=#ffff88;strokeColor=#36393d;" parent="Rp97zshGSxgJkGg2U5Pg-23" vertex="1">
          <mxGeometry y="26" width="160" height="24" as="geometry" />
        </mxCell>
        <mxCell id="Rp97zshGSxgJkGg2U5Pg-25" value="montant" style="text;align=left;verticalAlign=top;spacingLeft=4;spacingRight=4;overflow=hidden;rotatable=0;points=[[0,0.5],[1,0.5]];portConstraint=eastwest;rounded=0;shadow=0;html=0;" parent="Rp97zshGSxgJkGg2U5Pg-23" vertex="1">
          <mxGeometry y="50" width="160" height="28" as="geometry" />
        </mxCell>
        <mxCell id="Rp97zshGSxgJkGg2U5Pg-26" value="date(automatique)" style="text;align=left;verticalAlign=top;spacingLeft=4;spacingRight=4;overflow=hidden;rotatable=0;points=[[0,0.5],[1,0.5]];portConstraint=eastwest;rounded=0;shadow=0;html=0;" parent="Rp97zshGSxgJkGg2U5Pg-23" vertex="1">
          <mxGeometry y="78" width="160" height="26" as="geometry" />
        </mxCell>
        <mxCell id="gZfIjVhXjQnh9mJ3TvMT-6" value="période(=1 pour 2021)&#xa;" style="text;align=left;verticalAlign=top;spacingLeft=4;spacingRight=4;overflow=hidden;rotatable=0;points=[[0,0.5],[1,0.5]];portConstraint=eastwest;rounded=0;shadow=0;html=0;" parent="Rp97zshGSxgJkGg2U5Pg-23" vertex="1">
          <mxGeometry y="104" width="160" height="28" as="geometry" />
        </mxCell>
        <mxCell id="Rp97zshGSxgJkGg2U5Pg-27" value="date_expiration" style="text;align=left;verticalAlign=top;spacingLeft=4;spacingRight=4;overflow=hidden;rotatable=0;points=[[0,0.5],[1,0.5]];portConstraint=eastwest;rounded=0;shadow=0;html=0;" parent="Rp97zshGSxgJkGg2U5Pg-23" vertex="1">
          <mxGeometry y="132" width="160" height="26" as="geometry" />
        </mxCell>
        <mxCell id="Rp97zshGSxgJkGg2U5Pg-147" value="statut(expiré/non expiré)&#xa;justificatif(fichier)&#xa;approuvé(true, false)" style="text;align=left;verticalAlign=top;spacingLeft=4;spacingRight=4;overflow=hidden;rotatable=0;points=[[0,0.5],[1,0.5]];portConstraint=eastwest;rounded=0;shadow=0;html=0;" parent="Rp97zshGSxgJkGg2U5Pg-23" vertex="1">
          <mxGeometry y="158" width="160" height="62" as="geometry" />
        </mxCell>
        <mxCell id="Rp97zshGSxgJkGg2U5Pg-42" value="Pret" style="swimlane;fontStyle=0;align=center;verticalAlign=top;childLayout=stackLayout;horizontal=1;startSize=26;horizontalStack=0;resizeParent=1;resizeLast=0;collapsible=1;marginBottom=0;rounded=0;shadow=0;strokeWidth=1;fillColor=#6a00ff;strokeColor=#3700CC;fontColor=#ffffff;" parent="WIyWlLk6GJQsqaUBKTNV-1" vertex="1">
          <mxGeometry x="380" y="690" width="180" height="362" as="geometry">
            <mxRectangle x="550" y="140" width="160" height="26" as="alternateBounds" />
          </mxGeometry>
        </mxCell>
        <mxCell id="Rp97zshGSxgJkGg2U5Pg-43" value="id" style="text;align=left;verticalAlign=top;spacingLeft=4;spacingRight=4;overflow=hidden;rotatable=0;points=[[0,0.5],[1,0.5]];portConstraint=eastwest;fillColor=#ffff88;strokeColor=#36393d;" parent="Rp97zshGSxgJkGg2U5Pg-42" vertex="1">
          <mxGeometry y="26" width="180" height="24" as="geometry" />
        </mxCell>
        <mxCell id="Rp97zshGSxgJkGg2U5Pg-44" value="date" style="text;align=left;verticalAlign=top;spacingLeft=4;spacingRight=4;overflow=hidden;rotatable=0;points=[[0,0.5],[1,0.5]];portConstraint=eastwest;rounded=0;shadow=0;html=0;" parent="Rp97zshGSxgJkGg2U5Pg-42" vertex="1">
          <mxGeometry y="50" width="180" height="26" as="geometry" />
        </mxCell>
        <mxCell id="Rp97zshGSxgJkGg2U5Pg-45" value="echeance" style="text;align=left;verticalAlign=top;spacingLeft=4;spacingRight=4;overflow=hidden;rotatable=0;points=[[0,0.5],[1,0.5]];portConstraint=eastwest;rounded=0;shadow=0;html=0;" parent="Rp97zshGSxgJkGg2U5Pg-42" vertex="1">
          <mxGeometry y="76" width="180" height="26" as="geometry" />
        </mxCell>
        <mxCell id="gZfIjVhXjQnh9mJ3TvMT-7" value="période(=1 pour 2021)" style="text;align=left;verticalAlign=top;spacingLeft=4;spacingRight=4;overflow=hidden;rotatable=0;points=[[0,0.5],[1,0.5]];portConstraint=eastwest;rounded=0;shadow=0;html=0;" parent="Rp97zshGSxgJkGg2U5Pg-42" vertex="1">
          <mxGeometry y="102" width="180" height="26" as="geometry" />
        </mxCell>
        <mxCell id="Rp97zshGSxgJkGg2U5Pg-46" value="montant" style="text;align=left;verticalAlign=top;spacingLeft=4;spacingRight=4;overflow=hidden;rotatable=0;points=[[0,0.5],[1,0.5]];portConstraint=eastwest;rounded=0;shadow=0;html=0;" parent="Rp97zshGSxgJkGg2U5Pg-42" vertex="1">
          <mxGeometry y="128" width="180" height="26" as="geometry" />
        </mxCell>
        <mxCell id="Rp97zshGSxgJkGg2U5Pg-61" value="type(sante/autres)" style="text;align=left;verticalAlign=top;spacingLeft=4;spacingRight=4;overflow=hidden;rotatable=0;points=[[0,0.5],[1,0.5]];portConstraint=eastwest;rounded=0;shadow=0;html=0;" parent="Rp97zshGSxgJkGg2U5Pg-42" vertex="1">
          <mxGeometry y="154" width="180" height="26" as="geometry" />
        </mxCell>
        <mxCell id="Rp97zshGSxgJkGg2U5Pg-62" value="RIB" style="text;align=left;verticalAlign=top;spacingLeft=4;spacingRight=4;overflow=hidden;rotatable=0;points=[[0,0.5],[1,0.5]];portConstraint=eastwest;rounded=0;shadow=0;html=0;" parent="Rp97zshGSxgJkGg2U5Pg-42" vertex="1">
          <mxGeometry y="180" width="180" height="26" as="geometry" />
        </mxCell>
        <mxCell id="Rp97zshGSxgJkGg2U5Pg-63" value="commentaire" style="text;align=left;verticalAlign=top;spacingLeft=4;spacingRight=4;overflow=hidden;rotatable=0;points=[[0,0.5],[1,0.5]];portConstraint=eastwest;rounded=0;shadow=0;html=0;" parent="Rp97zshGSxgJkGg2U5Pg-42" vertex="1">
          <mxGeometry y="206" width="180" height="26" as="geometry" />
        </mxCell>
        <mxCell id="Rp97zshGSxgJkGg2U5Pg-65" value="statut(traité/pas encore traité)" style="text;align=left;verticalAlign=top;spacingLeft=4;spacingRight=4;overflow=hidden;rotatable=0;points=[[0,0.5],[1,0.5]];portConstraint=eastwest;rounded=0;shadow=0;html=0;" parent="Rp97zshGSxgJkGg2U5Pg-42" vertex="1">
          <mxGeometry y="232" width="180" height="26" as="geometry" />
        </mxCell>
        <mxCell id="zUReEBaiGzOVDlKuCkMj-0" value="etat" style="text;align=left;verticalAlign=top;spacingLeft=4;spacingRight=4;overflow=hidden;rotatable=0;points=[[0,0.5],[1,0.5]];portConstraint=eastwest;rounded=0;shadow=0;html=0;" parent="Rp97zshGSxgJkGg2U5Pg-42" vertex="1">
          <mxGeometry y="258" width="180" height="26" as="geometry" />
        </mxCell>
        <mxCell id="zUReEBaiGzOVDlKuCkMj-1" value="priorite" style="text;align=left;verticalAlign=top;spacingLeft=4;spacingRight=4;overflow=hidden;rotatable=0;points=[[0,0.5],[1,0.5]];portConstraint=eastwest;rounded=0;shadow=0;html=0;" parent="Rp97zshGSxgJkGg2U5Pg-42" vertex="1">
          <mxGeometry y="284" width="180" height="26" as="geometry" />
        </mxCell>
        <mxCell id="zUReEBaiGzOVDlKuCkMj-2" value="remboursé=&quot;non&quot;" style="text;align=left;verticalAlign=top;spacingLeft=4;spacingRight=4;overflow=hidden;rotatable=0;points=[[0,0.5],[1,0.5]];portConstraint=eastwest;rounded=0;shadow=0;html=0;" parent="Rp97zshGSxgJkGg2U5Pg-42" vertex="1">
          <mxGeometry y="310" width="180" height="26" as="geometry" />
        </mxCell>
        <mxCell id="zUReEBaiGzOVDlKuCkMj-3" value="date_traitement" style="text;align=left;verticalAlign=top;spacingLeft=4;spacingRight=4;overflow=hidden;rotatable=0;points=[[0,0.5],[1,0.5]];portConstraint=eastwest;rounded=0;shadow=0;html=0;" parent="Rp97zshGSxgJkGg2U5Pg-42" vertex="1">
          <mxGeometry y="336" width="180" height="26" as="geometry" />
        </mxCell>
        <mxCell id="Rp97zshGSxgJkGg2U5Pg-47" value="" style="endArrow=open;shadow=0;strokeWidth=1;rounded=0;endFill=1;edgeStyle=elbowEdgeStyle;elbow=vertical;entryX=0.5;entryY=0;entryDx=0;entryDy=0;" parent="WIyWlLk6GJQsqaUBKTNV-1" source="zkfFHV4jXpPFQw0GAbJ--6" target="Rp97zshGSxgJkGg2U5Pg-42" edge="1">
          <mxGeometry x="0.5" y="41" relative="1" as="geometry">
            <mxPoint x="520" y="530" as="sourcePoint" />
            <mxPoint x="550" y="752" as="targetPoint" />
            <mxPoint x="-40" y="32" as="offset" />
          </mxGeometry>
        </mxCell>
        <mxCell id="Rp97zshGSxgJkGg2U5Pg-48" value="1" style="resizable=0;align=left;verticalAlign=bottom;labelBackgroundColor=none;fontSize=12;" parent="Rp97zshGSxgJkGg2U5Pg-47" connectable="0" vertex="1">
          <mxGeometry x="-1" relative="1" as="geometry">
            <mxPoint y="20" as="offset" />
          </mxGeometry>
        </mxCell>
        <mxCell id="Rp97zshGSxgJkGg2U5Pg-49" value="*" style="resizable=0;align=right;verticalAlign=bottom;labelBackgroundColor=none;fontSize=23;" parent="Rp97zshGSxgJkGg2U5Pg-47" connectable="0" vertex="1">
          <mxGeometry x="1" relative="1" as="geometry">
            <mxPoint x="-7" y="4" as="offset" />
          </mxGeometry>
        </mxCell>
        <mxCell id="Rp97zshGSxgJkGg2U5Pg-50" value="demande" style="text;html=1;resizable=0;points=[];;align=center;verticalAlign=middle;labelBackgroundColor=none;rounded=0;shadow=0;strokeWidth=1;fontSize=12;" parent="Rp97zshGSxgJkGg2U5Pg-47" vertex="1" connectable="0">
          <mxGeometry x="0.5" y="49" relative="1" as="geometry">
            <mxPoint x="21" y="-12.94" as="offset" />
          </mxGeometry>
        </mxCell>
        <mxCell id="Rp97zshGSxgJkGg2U5Pg-51" value="Login" style="swimlane;fontStyle=0;align=center;verticalAlign=top;childLayout=stackLayout;horizontal=1;startSize=26;horizontalStack=0;resizeParent=1;resizeLast=0;collapsible=1;marginBottom=0;rounded=0;shadow=0;strokeWidth=1;fillColor=#b1ddf0;strokeColor=#10739e;" parent="WIyWlLk6GJQsqaUBKTNV-1" vertex="1">
          <mxGeometry x="160" y="700" width="160" height="106" as="geometry">
            <mxRectangle x="550" y="140" width="160" height="26" as="alternateBounds" />
          </mxGeometry>
        </mxCell>
        <mxCell id="Rp97zshGSxgJkGg2U5Pg-52" value="id" style="text;align=left;verticalAlign=top;spacingLeft=4;spacingRight=4;overflow=hidden;rotatable=0;points=[[0,0.5],[1,0.5]];portConstraint=eastwest;fillColor=#ffff88;strokeColor=#36393d;" parent="Rp97zshGSxgJkGg2U5Pg-51" vertex="1">
          <mxGeometry y="26" width="160" height="24" as="geometry" />
        </mxCell>
        <mxCell id="Rp97zshGSxgJkGg2U5Pg-53" value="email" style="text;align=left;verticalAlign=top;spacingLeft=4;spacingRight=4;overflow=hidden;rotatable=0;points=[[0,0.5],[1,0.5]];portConstraint=eastwest;rounded=0;shadow=0;html=0;" parent="Rp97zshGSxgJkGg2U5Pg-51" vertex="1">
          <mxGeometry y="50" width="160" height="26" as="geometry" />
        </mxCell>
        <mxCell id="Rp97zshGSxgJkGg2U5Pg-54" value="password" style="text;align=left;verticalAlign=top;spacingLeft=4;spacingRight=4;overflow=hidden;rotatable=0;points=[[0,0.5],[1,0.5]];portConstraint=eastwest;rounded=0;shadow=0;html=0;" parent="Rp97zshGSxgJkGg2U5Pg-51" vertex="1">
          <mxGeometry y="76" width="160" height="26" as="geometry" />
        </mxCell>
        <mxCell id="Rp97zshGSxgJkGg2U5Pg-56" value="" style="endArrow=open;shadow=0;strokeWidth=1;rounded=0;endFill=1;edgeStyle=elbowEdgeStyle;elbow=vertical;entryX=0.5;entryY=0;entryDx=0;entryDy=0;" parent="WIyWlLk6GJQsqaUBKTNV-1" source="zkfFHV4jXpPFQw0GAbJ--6" target="Rp97zshGSxgJkGg2U5Pg-51" edge="1">
          <mxGeometry x="0.5" y="41" relative="1" as="geometry">
            <mxPoint x="590" y="494.5" as="sourcePoint" />
            <mxPoint x="970" y="450" as="targetPoint" />
            <mxPoint x="-40" y="32" as="offset" />
            <Array as="points">
              <mxPoint x="310" y="530" />
              <mxPoint x="670" y="490" />
              <mxPoint x="660" y="490" />
            </Array>
          </mxGeometry>
        </mxCell>
        <mxCell id="Rp97zshGSxgJkGg2U5Pg-57" value="1" style="resizable=0;align=left;verticalAlign=bottom;labelBackgroundColor=none;fontSize=12;" parent="Rp97zshGSxgJkGg2U5Pg-56" connectable="0" vertex="1">
          <mxGeometry x="-1" relative="1" as="geometry">
            <mxPoint x="-20" y="-4.5" as="offset" />
          </mxGeometry>
        </mxCell>
        <mxCell id="Rp97zshGSxgJkGg2U5Pg-58" value="1" style="resizable=0;align=right;verticalAlign=bottom;labelBackgroundColor=none;fontSize=12;" parent="Rp97zshGSxgJkGg2U5Pg-56" connectable="0" vertex="1">
          <mxGeometry x="1" relative="1" as="geometry">
            <mxPoint x="-7" y="4" as="offset" />
          </mxGeometry>
        </mxCell>
        <mxCell id="Rp97zshGSxgJkGg2U5Pg-129" value="possede" style="text;html=1;resizable=0;points=[];;align=center;verticalAlign=middle;labelBackgroundColor=none;rounded=0;shadow=0;strokeWidth=1;fontSize=12;" parent="Rp97zshGSxgJkGg2U5Pg-56" vertex="1" connectable="0">
          <mxGeometry x="0.5" y="49" relative="1" as="geometry">
            <mxPoint x="61" y="-73" as="offset" />
          </mxGeometry>
        </mxCell>
        <mxCell id="Rp97zshGSxgJkGg2U5Pg-66" value="Media" style="swimlane;fontStyle=0;align=center;verticalAlign=top;childLayout=stackLayout;horizontal=1;startSize=26;horizontalStack=0;resizeParent=1;resizeLast=0;collapsible=1;marginBottom=0;rounded=0;shadow=0;strokeWidth=1;fillColor=#60a917;strokeColor=#2D7600;fontColor=#ffffff;" parent="WIyWlLk6GJQsqaUBKTNV-1" vertex="1">
          <mxGeometry x="390" y="1120" width="160" height="106" as="geometry">
            <mxRectangle x="550" y="140" width="160" height="26" as="alternateBounds" />
          </mxGeometry>
        </mxCell>
        <mxCell id="Rp97zshGSxgJkGg2U5Pg-67" value="id" style="text;align=left;verticalAlign=top;spacingLeft=4;spacingRight=4;overflow=hidden;rotatable=0;points=[[0,0.5],[1,0.5]];portConstraint=eastwest;fillColor=#ffff88;strokeColor=#36393d;" parent="Rp97zshGSxgJkGg2U5Pg-66" vertex="1">
          <mxGeometry y="26" width="160" height="24" as="geometry" />
        </mxCell>
        <mxCell id="Rp97zshGSxgJkGg2U5Pg-68" value="piece_identite" style="text;align=left;verticalAlign=top;spacingLeft=4;spacingRight=4;overflow=hidden;rotatable=0;points=[[0,0.5],[1,0.5]];portConstraint=eastwest;rounded=0;shadow=0;html=0;" parent="Rp97zshGSxgJkGg2U5Pg-66" vertex="1">
          <mxGeometry y="50" width="160" height="26" as="geometry" />
        </mxCell>
        <mxCell id="Rp97zshGSxgJkGg2U5Pg-69" value="justificatif_pret" style="text;align=left;verticalAlign=top;spacingLeft=4;spacingRight=4;overflow=hidden;rotatable=0;points=[[0,0.5],[1,0.5]];portConstraint=eastwest;rounded=0;shadow=0;html=0;" parent="Rp97zshGSxgJkGg2U5Pg-66" vertex="1">
          <mxGeometry y="76" width="160" height="26" as="geometry" />
        </mxCell>
        <mxCell id="Rp97zshGSxgJkGg2U5Pg-70" value="" style="endArrow=open;shadow=0;strokeWidth=1;rounded=0;endFill=1;edgeStyle=elbowEdgeStyle;elbow=vertical;entryX=0.444;entryY=-0.019;entryDx=0;entryDy=0;entryPerimeter=0;" parent="WIyWlLk6GJQsqaUBKTNV-1" source="Rp97zshGSxgJkGg2U5Pg-42" target="Rp97zshGSxgJkGg2U5Pg-66" edge="1">
          <mxGeometry x="0.5" y="41" relative="1" as="geometry">
            <mxPoint x="471" y="970" as="sourcePoint" />
            <mxPoint x="620" y="1060" as="targetPoint" />
            <mxPoint x="-40" y="32" as="offset" />
            <Array as="points">
              <mxPoint x="471" y="1010" />
              <mxPoint x="470" y="990" />
              <mxPoint x="570" y="1180" />
            </Array>
          </mxGeometry>
        </mxCell>
        <mxCell id="Rp97zshGSxgJkGg2U5Pg-71" value="1" style="resizable=0;align=left;verticalAlign=bottom;labelBackgroundColor=none;fontSize=12;" parent="Rp97zshGSxgJkGg2U5Pg-70" connectable="0" vertex="1">
          <mxGeometry x="-1" relative="1" as="geometry">
            <mxPoint x="-21" y="25" as="offset" />
          </mxGeometry>
        </mxCell>
        <mxCell id="Rp97zshGSxgJkGg2U5Pg-72" value="1" style="resizable=0;align=right;verticalAlign=bottom;labelBackgroundColor=none;fontSize=12;" parent="Rp97zshGSxgJkGg2U5Pg-70" connectable="0" vertex="1">
          <mxGeometry x="1" relative="1" as="geometry">
            <mxPoint x="-7" y="4" as="offset" />
          </mxGeometry>
        </mxCell>
        <mxCell id="Rp97zshGSxgJkGg2U5Pg-73" value="concerne" style="text;html=1;resizable=0;points=[];;align=center;verticalAlign=middle;labelBackgroundColor=none;rounded=0;shadow=0;strokeWidth=1;fontSize=12;" parent="Rp97zshGSxgJkGg2U5Pg-70" vertex="1" connectable="0">
          <mxGeometry x="0.5" y="49" relative="1" as="geometry">
            <mxPoint x="-80.04" y="-14.04" as="offset" />
          </mxGeometry>
        </mxCell>
        <mxCell id="Rp97zshGSxgJkGg2U5Pg-84" value="Messagerie" style="swimlane;fontStyle=0;align=center;verticalAlign=top;childLayout=stackLayout;horizontal=1;startSize=26;horizontalStack=0;resizeParent=1;resizeLast=0;collapsible=1;marginBottom=0;rounded=0;shadow=0;strokeWidth=1;fillColor=#fa6800;strokeColor=#C73500;fontColor=#ffffff;" parent="WIyWlLk6GJQsqaUBKTNV-1" vertex="1">
          <mxGeometry x="620" y="700" width="160" height="190" as="geometry">
            <mxRectangle x="550" y="140" width="160" height="26" as="alternateBounds" />
          </mxGeometry>
        </mxCell>
        <mxCell id="Rp97zshGSxgJkGg2U5Pg-85" value="id" style="text;align=left;verticalAlign=top;spacingLeft=4;spacingRight=4;overflow=hidden;rotatable=0;points=[[0,0.5],[1,0.5]];portConstraint=eastwest;fillColor=#ffff88;strokeColor=#36393d;" parent="Rp97zshGSxgJkGg2U5Pg-84" vertex="1">
          <mxGeometry y="26" width="160" height="24" as="geometry" />
        </mxCell>
        <mxCell id="Rp97zshGSxgJkGg2U5Pg-87" value="message" style="text;align=left;verticalAlign=top;spacingLeft=4;spacingRight=4;overflow=hidden;rotatable=0;points=[[0,0.5],[1,0.5]];portConstraint=eastwest;rounded=0;shadow=0;html=0;" parent="Rp97zshGSxgJkGg2U5Pg-84" vertex="1">
          <mxGeometry y="50" width="160" height="26" as="geometry" />
        </mxCell>
        <mxCell id="Rp97zshGSxgJkGg2U5Pg-88" value="type(reçu/envoyé)" style="text;align=left;verticalAlign=top;spacingLeft=4;spacingRight=4;overflow=hidden;rotatable=0;points=[[0,0.5],[1,0.5]];portConstraint=eastwest;rounded=0;shadow=0;html=0;" parent="Rp97zshGSxgJkGg2U5Pg-84" vertex="1">
          <mxGeometry y="76" width="160" height="26" as="geometry" />
        </mxCell>
        <mxCell id="Rp97zshGSxgJkGg2U5Pg-89" value="statut(lu/non lu)" style="text;align=left;verticalAlign=top;spacingLeft=4;spacingRight=4;overflow=hidden;rotatable=0;points=[[0,0.5],[1,0.5]];portConstraint=eastwest;rounded=0;shadow=0;html=0;" parent="Rp97zshGSxgJkGg2U5Pg-84" vertex="1">
          <mxGeometry y="102" width="160" height="28" as="geometry" />
        </mxCell>
        <mxCell id="CmLlIv_aRd70BPmKy3T8-8" value="destinataire" style="text;align=left;verticalAlign=top;spacingLeft=4;spacingRight=4;overflow=hidden;rotatable=0;points=[[0,0.5],[1,0.5]];portConstraint=eastwest;rounded=0;shadow=0;html=0;" parent="Rp97zshGSxgJkGg2U5Pg-84" vertex="1">
          <mxGeometry y="130" width="160" height="28" as="geometry" />
        </mxCell>
        <mxCell id="CmLlIv_aRd70BPmKy3T8-9" value="expéditeur" style="text;align=left;verticalAlign=top;spacingLeft=4;spacingRight=4;overflow=hidden;rotatable=0;points=[[0,0.5],[1,0.5]];portConstraint=eastwest;rounded=0;shadow=0;html=0;" parent="Rp97zshGSxgJkGg2U5Pg-84" vertex="1">
          <mxGeometry y="158" width="160" height="28" as="geometry" />
        </mxCell>
        <mxCell id="Rp97zshGSxgJkGg2U5Pg-90" value="" style="endArrow=open;shadow=0;strokeWidth=1;rounded=0;endFill=1;edgeStyle=elbowEdgeStyle;elbow=vertical;entryX=0.5;entryY=0;entryDx=0;entryDy=0;" parent="WIyWlLk6GJQsqaUBKTNV-1" source="zkfFHV4jXpPFQw0GAbJ--6" target="Rp97zshGSxgJkGg2U5Pg-84" edge="1">
          <mxGeometry x="0.5" y="41" relative="1" as="geometry">
            <mxPoint x="630" y="600" as="sourcePoint" />
            <mxPoint x="580" y="862" as="targetPoint" />
            <mxPoint x="-40" y="32" as="offset" />
            <Array as="points">
              <mxPoint x="620" y="620" />
            </Array>
          </mxGeometry>
        </mxCell>
        <mxCell id="Rp97zshGSxgJkGg2U5Pg-91" value="1" style="resizable=0;align=left;verticalAlign=bottom;labelBackgroundColor=none;fontSize=12;" parent="Rp97zshGSxgJkGg2U5Pg-90" connectable="0" vertex="1">
          <mxGeometry x="-1" relative="1" as="geometry">
            <mxPoint y="20" as="offset" />
          </mxGeometry>
        </mxCell>
        <mxCell id="Rp97zshGSxgJkGg2U5Pg-92" value="*" style="resizable=0;align=right;verticalAlign=bottom;labelBackgroundColor=none;fontSize=23;" parent="Rp97zshGSxgJkGg2U5Pg-90" connectable="0" vertex="1">
          <mxGeometry x="1" relative="1" as="geometry">
            <mxPoint x="-7" y="4" as="offset" />
          </mxGeometry>
        </mxCell>
        <mxCell id="Rp97zshGSxgJkGg2U5Pg-93" value="concerne" style="text;html=1;resizable=0;points=[];;align=center;verticalAlign=middle;labelBackgroundColor=none;rounded=0;shadow=0;strokeWidth=1;fontSize=12;" parent="Rp97zshGSxgJkGg2U5Pg-90" vertex="1" connectable="0">
          <mxGeometry x="0.5" y="49" relative="1" as="geometry">
            <mxPoint x="-79" y="-20.590000000000003" as="offset" />
          </mxGeometry>
        </mxCell>
        <mxCell id="Rp97zshGSxgJkGg2U5Pg-95" value="L&#39;étudiant peut faire des remboursements par tranche,&lt;br&gt;donc au niveau de son tableau de bord, on peut avoir&lt;br&gt;Remboursement: 3/1&amp;nbsp;&lt;br&gt;s&#39;il s&#39;agit de remboursement à 3 tranches." style="ellipse;shape=cloud;whiteSpace=wrap;html=1;fillColor=#008a00;strokeColor=#005700;fontColor=#ffffff;" parent="WIyWlLk6GJQsqaUBKTNV-1" vertex="1">
          <mxGeometry x="1120" y="957" width="380" height="134" as="geometry" />
        </mxCell>
        <mxCell id="Rp97zshGSxgJkGg2U5Pg-103" value="Remboursement" style="swimlane;fontStyle=0;align=center;verticalAlign=top;childLayout=stackLayout;horizontal=1;startSize=26;horizontalStack=0;resizeParent=1;resizeLast=0;collapsible=1;marginBottom=0;rounded=0;shadow=0;strokeWidth=1;fillColor=#008a00;strokeColor=#005700;fontColor=#ffffff;" parent="WIyWlLk6GJQsqaUBKTNV-1" vertex="1">
          <mxGeometry x="1220" y="700" width="160" height="260" as="geometry">
            <mxRectangle x="550" y="140" width="160" height="26" as="alternateBounds" />
          </mxGeometry>
        </mxCell>
        <mxCell id="Rp97zshGSxgJkGg2U5Pg-104" value="id" style="text;align=left;verticalAlign=top;spacingLeft=4;spacingRight=4;overflow=hidden;rotatable=0;points=[[0,0.5],[1,0.5]];portConstraint=eastwest;fillColor=#ffff88;strokeColor=#36393d;" parent="Rp97zshGSxgJkGg2U5Pg-103" vertex="1">
          <mxGeometry y="26" width="160" height="24" as="geometry" />
        </mxCell>
        <mxCell id="Rp97zshGSxgJkGg2U5Pg-105" value="montant" style="text;align=left;verticalAlign=top;spacingLeft=4;spacingRight=4;overflow=hidden;rotatable=0;points=[[0,0.5],[1,0.5]];portConstraint=eastwest;rounded=0;shadow=0;html=0;" parent="Rp97zshGSxgJkGg2U5Pg-103" vertex="1">
          <mxGeometry y="50" width="160" height="26" as="geometry" />
        </mxCell>
        <mxCell id="Rp97zshGSxgJkGg2U5Pg-106" value="date(automatique)" style="text;align=left;verticalAlign=top;spacingLeft=4;spacingRight=4;overflow=hidden;rotatable=0;points=[[0,0.5],[1,0.5]];portConstraint=eastwest;rounded=0;shadow=0;html=0;" parent="Rp97zshGSxgJkGg2U5Pg-103" vertex="1">
          <mxGeometry y="76" width="160" height="26" as="geometry" />
        </mxCell>
        <mxCell id="gZfIjVhXjQnh9mJ3TvMT-5" value="période(=1 pour 2021)" style="text;align=left;verticalAlign=top;spacingLeft=4;spacingRight=4;overflow=hidden;rotatable=0;points=[[0,0.5],[1,0.5]];portConstraint=eastwest;rounded=0;shadow=0;html=0;" parent="Rp97zshGSxgJkGg2U5Pg-103" vertex="1">
          <mxGeometry y="102" width="160" height="26" as="geometry" />
        </mxCell>
        <mxCell id="Rp97zshGSxgJkGg2U5Pg-107" value="type(entier/partiel)" style="text;align=left;verticalAlign=top;spacingLeft=4;spacingRight=4;overflow=hidden;rotatable=0;points=[[0,0.5],[1,0.5]];portConstraint=eastwest;rounded=0;shadow=0;html=0;" parent="Rp97zshGSxgJkGg2U5Pg-103" vertex="1">
          <mxGeometry y="128" width="160" height="26" as="geometry" />
        </mxCell>
        <mxCell id="Rp97zshGSxgJkGg2U5Pg-108" value="justificatif(fichier)" style="text;align=left;verticalAlign=top;spacingLeft=4;spacingRight=4;overflow=hidden;rotatable=0;points=[[0,0.5],[1,0.5]];portConstraint=eastwest;rounded=0;shadow=0;html=0;" parent="Rp97zshGSxgJkGg2U5Pg-103" vertex="1">
          <mxGeometry y="154" width="160" height="26" as="geometry" />
        </mxCell>
        <mxCell id="Rp97zshGSxgJkGg2U5Pg-109" value="montant&#xa;statut" style="text;align=left;verticalAlign=top;spacingLeft=4;spacingRight=4;overflow=hidden;rotatable=0;points=[[0,0.5],[1,0.5]];portConstraint=eastwest;rounded=0;shadow=0;html=0;" parent="Rp97zshGSxgJkGg2U5Pg-103" vertex="1">
          <mxGeometry y="180" width="160" height="50" as="geometry" />
        </mxCell>
        <mxCell id="zUReEBaiGzOVDlKuCkMj-5" value="id_pret" style="text;align=left;verticalAlign=top;spacingLeft=4;spacingRight=4;overflow=hidden;rotatable=0;points=[[0,0.5],[1,0.5]];portConstraint=eastwest;rounded=0;shadow=0;html=0;" parent="Rp97zshGSxgJkGg2U5Pg-103" vertex="1">
          <mxGeometry y="230" width="160" height="26" as="geometry" />
        </mxCell>
        <mxCell id="Rp97zshGSxgJkGg2U5Pg-110" value="" style="endArrow=open;shadow=0;strokeWidth=1;rounded=0;endFill=1;edgeStyle=elbowEdgeStyle;elbow=vertical;entryX=0.5;entryY=0;entryDx=0;entryDy=0;" parent="WIyWlLk6GJQsqaUBKTNV-1" source="zkfFHV4jXpPFQw0GAbJ--6" target="Rp97zshGSxgJkGg2U5Pg-103" edge="1">
          <mxGeometry x="0.5" y="41" relative="1" as="geometry">
            <mxPoint x="590" y="520" as="sourcePoint" />
            <mxPoint x="1010" y="520" as="targetPoint" />
            <mxPoint x="-40" y="32" as="offset" />
            <Array as="points">
              <mxPoint x="610" y="520" />
            </Array>
          </mxGeometry>
        </mxCell>
        <mxCell id="Rp97zshGSxgJkGg2U5Pg-111" value="1" style="resizable=0;align=left;verticalAlign=bottom;labelBackgroundColor=none;fontSize=12;" parent="Rp97zshGSxgJkGg2U5Pg-110" connectable="0" vertex="1">
          <mxGeometry x="-1" relative="1" as="geometry">
            <mxPoint x="10" as="offset" />
          </mxGeometry>
        </mxCell>
        <mxCell id="Rp97zshGSxgJkGg2U5Pg-112" value="*" style="resizable=0;align=right;verticalAlign=bottom;labelBackgroundColor=none;fontSize=23;" parent="Rp97zshGSxgJkGg2U5Pg-110" connectable="0" vertex="1">
          <mxGeometry x="1" relative="1" as="geometry">
            <mxPoint x="-7" y="4" as="offset" />
          </mxGeometry>
        </mxCell>
        <mxCell id="Rp97zshGSxgJkGg2U5Pg-124" value="Valider une déclaration ajoute l&#39;enregistrement&lt;br&gt;d&#39;une déclaration de remboursement&lt;br&gt;ou d&#39;une déclaration de&amp;nbsp;&lt;br&gt;cotisation" style="ellipse;shape=cloud;whiteSpace=wrap;html=1;fillColor=#0050ef;strokeColor=#001DBC;fontColor=#ffffff;" parent="WIyWlLk6GJQsqaUBKTNV-1" vertex="1">
          <mxGeometry x="820" y="897" width="320" height="120" as="geometry" />
        </mxCell>
        <mxCell id="Rp97zshGSxgJkGg2U5Pg-130" value="" style="endArrow=open;shadow=0;strokeWidth=1;rounded=0;endFill=1;edgeStyle=elbowEdgeStyle;elbow=vertical;entryX=0.25;entryY=0;entryDx=0;entryDy=0;" parent="WIyWlLk6GJQsqaUBKTNV-1" source="zkfFHV4jXpPFQw0GAbJ--13" target="Rp97zshGSxgJkGg2U5Pg-51" edge="1">
          <mxGeometry x="0.5" y="41" relative="1" as="geometry">
            <mxPoint x="160" y="380" as="sourcePoint" />
            <mxPoint x="250" y="690" as="targetPoint" />
            <mxPoint x="-40" y="32" as="offset" />
            <Array as="points">
              <mxPoint x="170" y="640" />
              <mxPoint x="190" y="420" />
              <mxPoint x="230" y="500" />
              <mxPoint x="220" y="610" />
              <mxPoint x="500" y="530" />
              <mxPoint x="680" y="500" />
              <mxPoint x="670" y="500" />
            </Array>
          </mxGeometry>
        </mxCell>
        <mxCell id="Rp97zshGSxgJkGg2U5Pg-131" value="1" style="resizable=0;align=left;verticalAlign=bottom;labelBackgroundColor=none;fontSize=12;" parent="Rp97zshGSxgJkGg2U5Pg-130" connectable="0" vertex="1">
          <mxGeometry x="-1" relative="1" as="geometry">
            <mxPoint y="20" as="offset" />
          </mxGeometry>
        </mxCell>
        <mxCell id="Rp97zshGSxgJkGg2U5Pg-132" value="1" style="resizable=0;align=right;verticalAlign=bottom;labelBackgroundColor=none;fontSize=12;" parent="Rp97zshGSxgJkGg2U5Pg-130" connectable="0" vertex="1">
          <mxGeometry x="1" relative="1" as="geometry">
            <mxPoint x="-7" y="4" as="offset" />
          </mxGeometry>
        </mxCell>
        <mxCell id="Rp97zshGSxgJkGg2U5Pg-133" value="effectue" style="text;html=1;resizable=0;points=[];;align=center;verticalAlign=middle;labelBackgroundColor=none;rounded=0;shadow=0;strokeWidth=1;fontSize=12;" parent="Rp97zshGSxgJkGg2U5Pg-130" vertex="1" connectable="0">
          <mxGeometry x="0.5" y="49" relative="1" as="geometry">
            <mxPoint x="1031" y="-134.71" as="offset" />
          </mxGeometry>
        </mxCell>
        <mxCell id="Rp97zshGSxgJkGg2U5Pg-134" value="possede" style="text;html=1;resizable=0;points=[];;align=center;verticalAlign=middle;labelBackgroundColor=none;rounded=0;shadow=0;strokeWidth=1;fontSize=12;" parent="Rp97zshGSxgJkGg2U5Pg-130" vertex="1" connectable="0">
          <mxGeometry x="0.5" y="49" relative="1" as="geometry">
            <mxPoint x="-79" y="-14.71" as="offset" />
          </mxGeometry>
        </mxCell>
        <mxCell id="Rp97zshGSxgJkGg2U5Pg-145" value="L&#39;ajout de tuple dans les tables qui sont&amp;nbsp;&lt;br&gt;sur ce niveau a un id (identifiant)&lt;br&gt;qui auto-incrémenté" style="ellipse;shape=cloud;whiteSpace=wrap;html=1;fillColor=#ffff88;strokeColor=#36393d;" parent="WIyWlLk6GJQsqaUBKTNV-1" vertex="1">
          <mxGeometry x="2000" y="703" width="380" height="134" as="geometry" />
        </mxCell>
        <mxCell id="Rp97zshGSxgJkGg2U5Pg-146" value="On peut valider une demande d&#39;inscription&lt;br&gt;avant la cotisation.&lt;br&gt;La validation de la déclaration&lt;br&gt;de cotisation conduit à l&#39;ajout d&#39;une cotisation.&lt;br&gt;La date d&#39;expiration est par défaut le 31 décembre de chaque année" style="ellipse;shape=cloud;whiteSpace=wrap;html=1;fillColor=#a20025;strokeColor=#6F0000;fontColor=#ffffff;" parent="WIyWlLk6GJQsqaUBKTNV-1" vertex="1">
          <mxGeometry x="1570" y="918" width="320" height="180" as="geometry" />
        </mxCell>
        <mxCell id="Rp97zshGSxgJkGg2U5Pg-163" value="Réclamation" style="swimlane;fontStyle=0;align=center;verticalAlign=top;childLayout=stackLayout;horizontal=1;startSize=26;horizontalStack=0;resizeParent=1;resizeLast=0;collapsible=1;marginBottom=0;rounded=0;shadow=0;strokeWidth=1;fillColor=#bac8d3;strokeColor=#23445d;" parent="WIyWlLk6GJQsqaUBKTNV-1" vertex="1">
          <mxGeometry x="1840" y="703" width="160" height="132" as="geometry">
            <mxRectangle x="550" y="140" width="160" height="26" as="alternateBounds" />
          </mxGeometry>
        </mxCell>
        <mxCell id="Rp97zshGSxgJkGg2U5Pg-164" value="id" style="text;align=left;verticalAlign=top;spacingLeft=4;spacingRight=4;overflow=hidden;rotatable=0;points=[[0,0.5],[1,0.5]];portConstraint=eastwest;fillColor=#ffff88;strokeColor=#36393d;" parent="Rp97zshGSxgJkGg2U5Pg-163" vertex="1">
          <mxGeometry y="26" width="160" height="24" as="geometry" />
        </mxCell>
        <mxCell id="Rp97zshGSxgJkGg2U5Pg-171" value="date(automatique)" style="text;align=left;verticalAlign=top;spacingLeft=4;spacingRight=4;overflow=hidden;rotatable=0;points=[[0,0.5],[1,0.5]];portConstraint=eastwest;rounded=0;shadow=0;html=0;" parent="Rp97zshGSxgJkGg2U5Pg-163" vertex="1">
          <mxGeometry y="50" width="160" height="28" as="geometry" />
        </mxCell>
        <mxCell id="Rp97zshGSxgJkGg2U5Pg-165" value="description" style="text;align=left;verticalAlign=top;spacingLeft=4;spacingRight=4;overflow=hidden;rotatable=0;points=[[0,0.5],[1,0.5]];portConstraint=eastwest;rounded=0;shadow=0;html=0;" parent="Rp97zshGSxgJkGg2U5Pg-163" vertex="1">
          <mxGeometry y="78" width="160" height="28" as="geometry" />
        </mxCell>
        <mxCell id="Rp97zshGSxgJkGg2U5Pg-166" value="statut(traité/non traité)" style="text;align=left;verticalAlign=top;spacingLeft=4;spacingRight=4;overflow=hidden;rotatable=0;points=[[0,0.5],[1,0.5]];portConstraint=eastwest;rounded=0;shadow=0;html=0;" parent="Rp97zshGSxgJkGg2U5Pg-163" vertex="1">
          <mxGeometry y="106" width="160" height="26" as="geometry" />
        </mxCell>
        <mxCell id="Rp97zshGSxgJkGg2U5Pg-167" value="" style="endArrow=open;shadow=0;strokeWidth=1;rounded=0;endFill=1;edgeStyle=elbowEdgeStyle;elbow=vertical;entryX=0.5;entryY=0;entryDx=0;entryDy=0;exitX=0.58;exitY=0.002;exitDx=0;exitDy=0;exitPerimeter=0;" parent="WIyWlLk6GJQsqaUBKTNV-1" source="zkfFHV4jXpPFQw0GAbJ--6" target="Rp97zshGSxgJkGg2U5Pg-163" edge="1">
          <mxGeometry x="0.5" y="41" relative="1" as="geometry">
            <mxPoint x="870" y="450" as="sourcePoint" />
            <mxPoint x="740" y="742" as="targetPoint" />
            <mxPoint x="-40" y="32" as="offset" />
            <Array as="points">
              <mxPoint x="1370" y="400" />
              <mxPoint x="1540" y="450" />
              <mxPoint x="1530" y="480" />
              <mxPoint x="1280" y="450" />
              <mxPoint x="700" y="480" />
            </Array>
          </mxGeometry>
        </mxCell>
        <mxCell id="Rp97zshGSxgJkGg2U5Pg-168" value="1" style="resizable=0;align=left;verticalAlign=bottom;labelBackgroundColor=none;fontSize=12;" parent="Rp97zshGSxgJkGg2U5Pg-167" connectable="0" vertex="1">
          <mxGeometry x="-1" relative="1" as="geometry">
            <mxPoint x="10" as="offset" />
          </mxGeometry>
        </mxCell>
        <mxCell id="Rp97zshGSxgJkGg2U5Pg-169" value="*" style="resizable=0;align=right;verticalAlign=bottom;labelBackgroundColor=none;fontSize=25;" parent="Rp97zshGSxgJkGg2U5Pg-167" connectable="0" vertex="1">
          <mxGeometry x="1" relative="1" as="geometry">
            <mxPoint x="-7" y="-10.18" as="offset" />
          </mxGeometry>
        </mxCell>
        <mxCell id="Rp97zshGSxgJkGg2U5Pg-170" value="concerne" style="text;html=1;resizable=0;points=[];;align=center;verticalAlign=middle;labelBackgroundColor=none;rounded=0;shadow=0;strokeWidth=1;fontSize=12;" parent="Rp97zshGSxgJkGg2U5Pg-167" vertex="1" connectable="0">
          <mxGeometry x="0.5" y="49" relative="1" as="geometry">
            <mxPoint x="-390" y="39" as="offset" />
          </mxGeometry>
        </mxCell>
        <mxCell id="Rp97zshGSxgJkGg2U5Pg-173" value="La demande d&#39;inscription peut être validée&lt;br&gt;avant la déclaration de la cotisation&lt;br&gt;mais l&#39;utilisateur ne peut pas&amp;nbsp;&lt;br&gt;bénéficier des services avant le&amp;nbsp;&lt;br&gt;payement de sa cotisation" style="ellipse;shape=cloud;whiteSpace=wrap;html=1;fillColor=#e6d0de;strokeColor=#996185;gradientColor=#d5739d;" parent="WIyWlLk6GJQsqaUBKTNV-1" vertex="1">
          <mxGeometry x="1380" y="790" width="270" height="186" as="geometry" />
        </mxCell>
        <mxCell id="Rp97zshGSxgJkGg2U5Pg-174" value="Un prêt est validé une fois le virement est&amp;nbsp;&lt;br&gt;effectué.&lt;br&gt;Mais il faut nécessairement que le&amp;nbsp;&lt;br&gt;demandeur ait déjà acquitté de sa&lt;br&gt;cotisation" style="ellipse;shape=cloud;whiteSpace=wrap;html=1;fillColor=#6a00ff;strokeColor=#3700CC;fontColor=#ffffff;" parent="WIyWlLk6GJQsqaUBKTNV-1" vertex="1">
          <mxGeometry x="60" y="800" width="320" height="157" as="geometry" />
        </mxCell>
        <mxCell id="Rp97zshGSxgJkGg2U5Pg-175" value="Faire une interface superadministrateur&lt;br&gt;qui peut faire l&#39;ajout, la modification et la&amp;nbsp;&lt;br&gt;suppression de l&#39;équipe administrative.&lt;br&gt;Le login du superadministrateur se fait au&amp;nbsp;&lt;br&gt;niveau de la partie administration" style="ellipse;shape=cloud;whiteSpace=wrap;html=1;fillColor=#f0a30a;strokeColor=#BD7000;fontColor=#ffffff;" parent="WIyWlLk6GJQsqaUBKTNV-1" vertex="1">
          <mxGeometry x="10" y="190" width="340" height="150" as="geometry" />
        </mxCell>
        <mxCell id="gZfIjVhXjQnh9mJ3TvMT-4" value="Il faut nécessairement avoir l&#39;attribut&amp;nbsp;&lt;br&gt;période car une personne peut avoir un prêt en fin&lt;br&gt;d&#39;année et payer l&#39;année suivante" style="ellipse;shape=cloud;whiteSpace=wrap;html=1;fillColor=#008a00;strokeColor=#005700;fontColor=#ffffff;" parent="WIyWlLk6GJQsqaUBKTNV-1" vertex="1">
          <mxGeometry x="980" y="1035" width="380" height="134" as="geometry" />
        </mxCell>
        <mxCell id="CmLlIv_aRd70BPmKy3T8-0" value="Dépense" style="swimlane;fontStyle=0;align=center;verticalAlign=top;childLayout=stackLayout;horizontal=1;startSize=26;horizontalStack=0;resizeParent=1;resizeLast=0;collapsible=1;marginBottom=0;rounded=0;shadow=0;strokeWidth=1;fillColor=#60a917;strokeColor=#2D7600;fontColor=#ffffff;" parent="WIyWlLk6GJQsqaUBKTNV-1" vertex="1">
          <mxGeometry x="30" y="1001" width="160" height="154" as="geometry">
            <mxRectangle x="550" y="140" width="160" height="26" as="alternateBounds" />
          </mxGeometry>
        </mxCell>
        <mxCell id="CmLlIv_aRd70BPmKy3T8-1" value="id" style="text;align=left;verticalAlign=top;spacingLeft=4;spacingRight=4;overflow=hidden;rotatable=0;points=[[0,0.5],[1,0.5]];portConstraint=eastwest;fillColor=#ffff88;strokeColor=#36393d;" parent="CmLlIv_aRd70BPmKy3T8-0" vertex="1">
          <mxGeometry y="26" width="160" height="24" as="geometry" />
        </mxCell>
        <mxCell id="CmLlIv_aRd70BPmKy3T8-2" value="date" style="text;align=left;verticalAlign=top;spacingLeft=4;spacingRight=4;overflow=hidden;rotatable=0;points=[[0,0.5],[1,0.5]];portConstraint=eastwest;rounded=0;shadow=0;html=0;" parent="CmLlIv_aRd70BPmKy3T8-0" vertex="1">
          <mxGeometry y="50" width="160" height="26" as="geometry" />
        </mxCell>
        <mxCell id="CmLlIv_aRd70BPmKy3T8-3" value="montant" style="text;align=left;verticalAlign=top;spacingLeft=4;spacingRight=4;overflow=hidden;rotatable=0;points=[[0,0.5],[1,0.5]];portConstraint=eastwest;rounded=0;shadow=0;html=0;" parent="CmLlIv_aRd70BPmKy3T8-0" vertex="1">
          <mxGeometry y="76" width="160" height="26" as="geometry" />
        </mxCell>
        <mxCell id="CmLlIv_aRd70BPmKy3T8-10" value="nature" style="text;align=left;verticalAlign=top;spacingLeft=4;spacingRight=4;overflow=hidden;rotatable=0;points=[[0,0.5],[1,0.5]];portConstraint=eastwest;rounded=0;shadow=0;html=0;" parent="CmLlIv_aRd70BPmKy3T8-0" vertex="1">
          <mxGeometry y="102" width="160" height="26" as="geometry" />
        </mxCell>
        <mxCell id="CmLlIv_aRd70BPmKy3T8-11" value="justificatif" style="text;align=left;verticalAlign=top;spacingLeft=4;spacingRight=4;overflow=hidden;rotatable=0;points=[[0,0.5],[1,0.5]];portConstraint=eastwest;rounded=0;shadow=0;html=0;" parent="CmLlIv_aRd70BPmKy3T8-0" vertex="1">
          <mxGeometry y="128" width="160" height="26" as="geometry" />
        </mxCell>
        <mxCell id="CmLlIv_aRd70BPmKy3T8-4" value="" style="endArrow=open;shadow=0;strokeWidth=1;rounded=0;endFill=1;edgeStyle=elbowEdgeStyle;elbow=vertical;entryX=0.444;entryY=-0.019;entryDx=0;entryDy=0;entryPerimeter=0;" parent="WIyWlLk6GJQsqaUBKTNV-1" source="Rp97zshGSxgJkGg2U5Pg-128" target="CmLlIv_aRd70BPmKy3T8-0" edge="1">
          <mxGeometry x="0.5" y="41" relative="1" as="geometry">
            <mxPoint x="101" y="909" as="sourcePoint" />
            <mxPoint x="250" y="1021" as="targetPoint" />
            <mxPoint x="-40" y="32" as="offset" />
            <Array as="points">
              <mxPoint x="70" y="971" />
              <mxPoint x="100" y="951" />
              <mxPoint x="200" y="1141" />
            </Array>
          </mxGeometry>
        </mxCell>
        <mxCell id="CmLlIv_aRd70BPmKy3T8-5" value="1" style="resizable=0;align=left;verticalAlign=bottom;labelBackgroundColor=none;fontSize=12;" parent="CmLlIv_aRd70BPmKy3T8-4" connectable="0" vertex="1">
          <mxGeometry x="-1" relative="1" as="geometry">
            <mxPoint x="-21" y="25" as="offset" />
          </mxGeometry>
        </mxCell>
        <mxCell id="CmLlIv_aRd70BPmKy3T8-6" value="1" style="resizable=0;align=right;verticalAlign=bottom;labelBackgroundColor=none;fontSize=12;" parent="CmLlIv_aRd70BPmKy3T8-4" connectable="0" vertex="1">
          <mxGeometry x="1" relative="1" as="geometry">
            <mxPoint x="-7" y="4" as="offset" />
          </mxGeometry>
        </mxCell>
        <mxCell id="CmLlIv_aRd70BPmKy3T8-7" value="effectue" style="text;html=1;resizable=0;points=[];;align=center;verticalAlign=middle;labelBackgroundColor=none;rounded=0;shadow=0;strokeWidth=1;fontSize=12;" parent="CmLlIv_aRd70BPmKy3T8-4" vertex="1" connectable="0">
          <mxGeometry x="0.5" y="49" relative="1" as="geometry">
            <mxPoint x="-80.04" y="-14.04" as="offset" />
          </mxGeometry>
        </mxCell>
        <mxCell id="zUReEBaiGzOVDlKuCkMj-6" value="don" style="swimlane;fontStyle=0;align=center;verticalAlign=top;childLayout=stackLayout;horizontal=1;startSize=26;horizontalStack=0;resizeParent=1;resizeLast=0;collapsible=1;marginBottom=0;rounded=0;shadow=0;strokeWidth=1;fillColor=#60a917;strokeColor=#2D7600;fontColor=#ffffff;" parent="WIyWlLk6GJQsqaUBKTNV-1" vertex="1">
          <mxGeometry x="-200" y="1001" width="160" height="159" as="geometry">
            <mxRectangle x="550" y="140" width="160" height="26" as="alternateBounds" />
          </mxGeometry>
        </mxCell>
        <mxCell id="zUReEBaiGzOVDlKuCkMj-7" value="id" style="text;align=left;verticalAlign=top;spacingLeft=4;spacingRight=4;overflow=hidden;rotatable=0;points=[[0,0.5],[1,0.5]];portConstraint=eastwest;fillColor=#ffff88;strokeColor=#36393d;" parent="zUReEBaiGzOVDlKuCkMj-6" vertex="1">
          <mxGeometry y="26" width="160" height="24" as="geometry" />
        </mxCell>
        <mxCell id="zUReEBaiGzOVDlKuCkMj-8" value="montant" style="text;align=left;verticalAlign=top;spacingLeft=4;spacingRight=4;overflow=hidden;rotatable=0;points=[[0,0.5],[1,0.5]];portConstraint=eastwest;rounded=0;shadow=0;html=0;" parent="zUReEBaiGzOVDlKuCkMj-6" vertex="1">
          <mxGeometry y="50" width="160" height="26" as="geometry" />
        </mxCell>
        <mxCell id="zUReEBaiGzOVDlKuCkMj-9" value="bienfaiteur" style="text;align=left;verticalAlign=top;spacingLeft=4;spacingRight=4;overflow=hidden;rotatable=0;points=[[0,0.5],[1,0.5]];portConstraint=eastwest;rounded=0;shadow=0;html=0;" parent="zUReEBaiGzOVDlKuCkMj-6" vertex="1">
          <mxGeometry y="76" width="160" height="26" as="geometry" />
        </mxCell>
        <mxCell id="zUReEBaiGzOVDlKuCkMj-10" value="date" style="text;align=left;verticalAlign=top;spacingLeft=4;spacingRight=4;overflow=hidden;rotatable=0;points=[[0,0.5],[1,0.5]];portConstraint=eastwest;rounded=0;shadow=0;html=0;" parent="zUReEBaiGzOVDlKuCkMj-6" vertex="1">
          <mxGeometry y="102" width="160" height="26" as="geometry" />
        </mxCell>
        <mxCell id="4_9SMMhambtlOWxE3HcK-1" value="id_admin" style="text;align=left;verticalAlign=top;spacingLeft=4;spacingRight=4;overflow=hidden;rotatable=0;points=[[0,0.5],[1,0.5]];portConstraint=eastwest;rounded=0;shadow=0;html=0;" vertex="1" parent="zUReEBaiGzOVDlKuCkMj-6">
          <mxGeometry y="128" width="160" height="26" as="geometry" />
        </mxCell>
        <mxCell id="4_9SMMhambtlOWxE3HcK-0" value="" style="endArrow=classic;html=1;entryX=0.5;entryY=0;entryDx=0;entryDy=0;exitX=-0.019;exitY=0;exitDx=0;exitDy=0;exitPerimeter=0;" edge="1" parent="WIyWlLk6GJQsqaUBKTNV-1" source="Rp97zshGSxgJkGg2U5Pg-7" target="zUReEBaiGzOVDlKuCkMj-6">
          <mxGeometry width="50" height="50" relative="1" as="geometry">
            <mxPoint x="-120" y="400" as="sourcePoint" />
            <mxPoint x="-230" y="820" as="targetPoint" />
            <Array as="points">
              <mxPoint x="-120" y="540" />
            </Array>
          </mxGeometry>
        </mxCell>
        <mxCell id="4_9SMMhambtlOWxE3HcK-2" value="don" style="swimlane;fontStyle=0;align=center;verticalAlign=top;childLayout=stackLayout;horizontal=1;startSize=26;horizontalStack=0;resizeParent=1;resizeLast=0;collapsible=1;marginBottom=0;rounded=0;shadow=0;strokeWidth=1;fillColor=#60a917;strokeColor=#2D7600;fontColor=#ffffff;" vertex="1" parent="WIyWlLk6GJQsqaUBKTNV-1">
          <mxGeometry x="1435" y="120" width="160" height="159" as="geometry">
            <mxRectangle x="550" y="140" width="160" height="26" as="alternateBounds" />
          </mxGeometry>
        </mxCell>
        <mxCell id="4_9SMMhambtlOWxE3HcK-3" value="id" style="text;align=left;verticalAlign=top;spacingLeft=4;spacingRight=4;overflow=hidden;rotatable=0;points=[[0,0.5],[1,0.5]];portConstraint=eastwest;fillColor=#ffff88;strokeColor=#36393d;" vertex="1" parent="4_9SMMhambtlOWxE3HcK-2">
          <mxGeometry y="26" width="160" height="24" as="geometry" />
        </mxCell>
        <mxCell id="4_9SMMhambtlOWxE3HcK-4" value="montant" style="text;align=left;verticalAlign=top;spacingLeft=4;spacingRight=4;overflow=hidden;rotatable=0;points=[[0,0.5],[1,0.5]];portConstraint=eastwest;rounded=0;shadow=0;html=0;" vertex="1" parent="4_9SMMhambtlOWxE3HcK-2">
          <mxGeometry y="50" width="160" height="26" as="geometry" />
        </mxCell>
        <mxCell id="4_9SMMhambtlOWxE3HcK-5" value="bienfaiteur" style="text;align=left;verticalAlign=top;spacingLeft=4;spacingRight=4;overflow=hidden;rotatable=0;points=[[0,0.5],[1,0.5]];portConstraint=eastwest;rounded=0;shadow=0;html=0;" vertex="1" parent="4_9SMMhambtlOWxE3HcK-2">
          <mxGeometry y="76" width="160" height="26" as="geometry" />
        </mxCell>
        <mxCell id="4_9SMMhambtlOWxE3HcK-6" value="date" style="text;align=left;verticalAlign=top;spacingLeft=4;spacingRight=4;overflow=hidden;rotatable=0;points=[[0,0.5],[1,0.5]];portConstraint=eastwest;rounded=0;shadow=0;html=0;" vertex="1" parent="4_9SMMhambtlOWxE3HcK-2">
          <mxGeometry y="102" width="160" height="26" as="geometry" />
        </mxCell>
        <mxCell id="4_9SMMhambtlOWxE3HcK-7" value="id_admin" style="text;align=left;verticalAlign=top;spacingLeft=4;spacingRight=4;overflow=hidden;rotatable=0;points=[[0,0.5],[1,0.5]];portConstraint=eastwest;rounded=0;shadow=0;html=0;" vertex="1" parent="4_9SMMhambtlOWxE3HcK-2">
          <mxGeometry y="128" width="160" height="26" as="geometry" />
        </mxCell>
      </root>
    </mxGraphModel>
  </diagram>
  <diagram id="4__G06D6o7-oZMy0fAKm" name="Page-2">
    <mxGraphModel dx="1223" dy="450" grid="1" gridSize="10" guides="1" tooltips="1" connect="1" arrows="1" fold="1" page="1" pageScale="1" pageWidth="827" pageHeight="1169" math="0" shadow="0">
      <root>
        <mxCell id="2GC5Wz971xdl8EIaFPTx-0" />
        <mxCell id="2GC5Wz971xdl8EIaFPTx-1" parent="2GC5Wz971xdl8EIaFPTx-0" />
        <mxCell id="2GC5Wz971xdl8EIaFPTx-2" value="Personne" style="swimlane;fontStyle=2;align=center;verticalAlign=top;childLayout=stackLayout;horizontal=1;startSize=26;horizontalStack=0;resizeParent=1;resizeLast=0;collapsible=1;marginBottom=0;rounded=0;shadow=0;strokeWidth=1;fillColor=#0050ef;strokeColor=#001DBC;fontColor=#ffffff;" vertex="1" parent="2GC5Wz971xdl8EIaFPTx-1">
          <mxGeometry x="334" y="60" width="186" height="240" as="geometry">
            <mxRectangle x="230" y="140" width="160" height="26" as="alternateBounds" />
          </mxGeometry>
        </mxCell>
        <mxCell id="2GC5Wz971xdl8EIaFPTx-3" value="Prenom" style="text;align=left;verticalAlign=top;spacingLeft=4;spacingRight=4;overflow=hidden;rotatable=0;points=[[0,0.5],[1,0.5]];portConstraint=eastwest;" vertex="1" parent="2GC5Wz971xdl8EIaFPTx-2">
          <mxGeometry y="26" width="186" height="26" as="geometry" />
        </mxCell>
        <mxCell id="2GC5Wz971xdl8EIaFPTx-4" value="Nom" style="text;align=left;verticalAlign=top;spacingLeft=4;spacingRight=4;overflow=hidden;rotatable=0;points=[[0,0.5],[1,0.5]];portConstraint=eastwest;rounded=0;shadow=0;html=0;" vertex="1" parent="2GC5Wz971xdl8EIaFPTx-2">
          <mxGeometry y="52" width="186" height="26" as="geometry" />
        </mxCell>
        <mxCell id="2GC5Wz971xdl8EIaFPTx-5" value="Sexe" style="text;align=left;verticalAlign=top;spacingLeft=4;spacingRight=4;overflow=hidden;rotatable=0;points=[[0,0.5],[1,0.5]];portConstraint=eastwest;rounded=0;shadow=0;html=0;" vertex="1" parent="2GC5Wz971xdl8EIaFPTx-2">
          <mxGeometry y="78" width="186" height="26" as="geometry" />
        </mxCell>
        <mxCell id="2GC5Wz971xdl8EIaFPTx-6" value="Pays d&#39;origine" style="text;align=left;verticalAlign=top;spacingLeft=4;spacingRight=4;overflow=hidden;rotatable=0;points=[[0,0.5],[1,0.5]];portConstraint=eastwest;rounded=0;shadow=0;html=0;" vertex="1" parent="2GC5Wz971xdl8EIaFPTx-2">
          <mxGeometry y="104" width="186" height="32" as="geometry" />
        </mxCell>
        <mxCell id="2GC5Wz971xdl8EIaFPTx-10" value="Email" style="text;align=left;verticalAlign=top;spacingLeft=4;spacingRight=4;overflow=hidden;rotatable=0;points=[[0,0.5],[1,0.5]];portConstraint=eastwest;rounded=0;shadow=0;html=0;" vertex="1" parent="2GC5Wz971xdl8EIaFPTx-2">
          <mxGeometry y="136" width="186" height="26" as="geometry" />
        </mxCell>
        <mxCell id="2GC5Wz971xdl8EIaFPTx-7" value="Nombre d&#39;annee au Maroc" style="text;align=left;verticalAlign=top;spacingLeft=4;spacingRight=4;overflow=hidden;rotatable=0;points=[[0,0.5],[1,0.5]];portConstraint=eastwest;rounded=0;shadow=0;html=0;" vertex="1" parent="2GC5Wz971xdl8EIaFPTx-2">
          <mxGeometry y="162" width="186" height="26" as="geometry" />
        </mxCell>
        <mxCell id="2GC5Wz971xdl8EIaFPTx-8" value="Date" style="text;align=left;verticalAlign=top;spacingLeft=4;spacingRight=4;overflow=hidden;rotatable=0;points=[[0,0.5],[1,0.5]];portConstraint=eastwest;rounded=0;shadow=0;html=0;" vertex="1" parent="2GC5Wz971xdl8EIaFPTx-2">
          <mxGeometry y="188" width="186" height="26" as="geometry" />
        </mxCell>
        <mxCell id="2GC5Wz971xdl8EIaFPTx-9" value="Numero telephone" style="text;align=left;verticalAlign=top;spacingLeft=4;spacingRight=4;overflow=hidden;rotatable=0;points=[[0,0.5],[1,0.5]];portConstraint=eastwest;rounded=0;shadow=0;html=0;" vertex="1" parent="2GC5Wz971xdl8EIaFPTx-2">
          <mxGeometry y="214" width="186" height="26" as="geometry" />
        </mxCell>
        <mxCell id="2GC5Wz971xdl8EIaFPTx-11" value="Etudiant" style="swimlane;fontStyle=0;align=center;verticalAlign=top;childLayout=stackLayout;horizontal=1;startSize=26;horizontalStack=0;resizeParent=1;resizeLast=0;collapsible=1;marginBottom=0;rounded=0;shadow=0;strokeWidth=1;fillColor=#e51400;strokeColor=#B20000;fontColor=#ffffff;" vertex="1" parent="2GC5Wz971xdl8EIaFPTx-1">
          <mxGeometry x="500" y="450" width="160" height="130" as="geometry">
            <mxRectangle x="130" y="380" width="160" height="26" as="alternateBounds" />
          </mxGeometry>
        </mxCell>
        <mxCell id="2GC5Wz971xdl8EIaFPTx-12" value="id(numéro téléphone)" style="text;align=left;verticalAlign=top;spacingLeft=4;spacingRight=4;overflow=hidden;rotatable=0;points=[[0,0.5],[1,0.5]];portConstraint=eastwest;fillColor=#d5e8d4;strokeColor=#82b366;gradientColor=#97d077;" vertex="1" parent="2GC5Wz971xdl8EIaFPTx-11">
          <mxGeometry y="26" width="160" height="26" as="geometry" />
        </mxCell>
        <mxCell id="2GC5Wz971xdl8EIaFPTx-13" value="Ville d&#39;étude" style="text;align=left;verticalAlign=top;spacingLeft=4;spacingRight=4;overflow=hidden;rotatable=0;points=[[0,0.5],[1,0.5]];portConstraint=eastwest;" vertex="1" parent="2GC5Wz971xdl8EIaFPTx-11">
          <mxGeometry y="52" width="160" height="26" as="geometry" />
        </mxCell>
        <mxCell id="2GC5Wz971xdl8EIaFPTx-14" value="Etablissement" style="text;align=left;verticalAlign=top;spacingLeft=4;spacingRight=4;overflow=hidden;rotatable=0;points=[[0,0.5],[1,0.5]];portConstraint=eastwest;" vertex="1" parent="2GC5Wz971xdl8EIaFPTx-11">
          <mxGeometry y="78" width="160" height="26" as="geometry" />
        </mxCell>
        <mxCell id="2GC5Wz971xdl8EIaFPTx-15" value="Filiere" style="text;align=left;verticalAlign=top;spacingLeft=4;spacingRight=4;overflow=hidden;rotatable=0;points=[[0,0.5],[1,0.5]];portConstraint=eastwest;" vertex="1" parent="2GC5Wz971xdl8EIaFPTx-11">
          <mxGeometry y="104" width="160" height="26" as="geometry" />
        </mxCell>
        <mxCell id="2GC5Wz971xdl8EIaFPTx-16" value="" style="endArrow=block;endSize=10;endFill=0;shadow=0;strokeWidth=1;rounded=0;edgeStyle=elbowEdgeStyle;elbow=vertical;" edge="1" parent="2GC5Wz971xdl8EIaFPTx-1" source="2GC5Wz971xdl8EIaFPTx-11" target="2GC5Wz971xdl8EIaFPTx-2">
          <mxGeometry width="160" relative="1" as="geometry">
            <mxPoint x="200" y="203" as="sourcePoint" />
            <mxPoint x="200" y="203" as="targetPoint" />
            <Array as="points">
              <mxPoint x="580" y="350" />
            </Array>
          </mxGeometry>
        </mxCell>
        <mxCell id="2GC5Wz971xdl8EIaFPTx-17" value="Equipe" style="swimlane;fontStyle=0;align=center;verticalAlign=top;childLayout=stackLayout;horizontal=1;startSize=26;horizontalStack=0;resizeParent=1;resizeLast=0;collapsible=1;marginBottom=0;rounded=0;shadow=0;strokeWidth=1;fillColor=#f0a30a;strokeColor=#BD7000;fontColor=#ffffff;" vertex="1" parent="2GC5Wz971xdl8EIaFPTx-1">
          <mxGeometry x="40" y="460" width="160" height="130" as="geometry">
            <mxRectangle x="340" y="380" width="170" height="26" as="alternateBounds" />
          </mxGeometry>
        </mxCell>
        <mxCell id="2GC5Wz971xdl8EIaFPTx-18" value="id(auto-incrémenté)" style="text;align=left;verticalAlign=top;spacingLeft=4;spacingRight=4;overflow=hidden;rotatable=0;points=[[0,0.5],[1,0.5]];portConstraint=eastwest;fillColor=#ffff88;strokeColor=#36393d;" vertex="1" parent="2GC5Wz971xdl8EIaFPTx-17">
          <mxGeometry y="26" width="160" height="26" as="geometry" />
        </mxCell>
        <mxCell id="2GC5Wz971xdl8EIaFPTx-19" value="poste" style="text;align=left;verticalAlign=top;spacingLeft=4;spacingRight=4;overflow=hidden;rotatable=0;points=[[0,0.5],[1,0.5]];portConstraint=eastwest;" vertex="1" parent="2GC5Wz971xdl8EIaFPTx-17">
          <mxGeometry y="52" width="160" height="26" as="geometry" />
        </mxCell>
        <mxCell id="2GC5Wz971xdl8EIaFPTx-20" value="photo" style="text;align=left;verticalAlign=top;spacingLeft=4;spacingRight=4;overflow=hidden;rotatable=0;points=[[0,0.5],[1,0.5]];portConstraint=eastwest;" vertex="1" parent="2GC5Wz971xdl8EIaFPTx-17">
          <mxGeometry y="78" width="160" height="26" as="geometry" />
        </mxCell>
        <mxCell id="2GC5Wz971xdl8EIaFPTx-21" value="description" style="text;align=left;verticalAlign=top;spacingLeft=4;spacingRight=4;overflow=hidden;rotatable=0;points=[[0,0.5],[1,0.5]];portConstraint=eastwest;" vertex="1" parent="2GC5Wz971xdl8EIaFPTx-17">
          <mxGeometry y="104" width="160" height="26" as="geometry" />
        </mxCell>
        <mxCell id="2GC5Wz971xdl8EIaFPTx-22" value="" style="endArrow=block;endSize=10;endFill=0;shadow=0;strokeWidth=1;rounded=0;edgeStyle=elbowEdgeStyle;elbow=vertical;" edge="1" parent="2GC5Wz971xdl8EIaFPTx-1" source="2GC5Wz971xdl8EIaFPTx-17" target="2GC5Wz971xdl8EIaFPTx-2">
          <mxGeometry width="160" relative="1" as="geometry">
            <mxPoint x="210" y="373" as="sourcePoint" />
            <mxPoint x="310" y="271" as="targetPoint" />
            <Array as="points">
              <mxPoint x="260" y="350" />
            </Array>
          </mxGeometry>
        </mxCell>
        <mxCell id="2GC5Wz971xdl8EIaFPTx-34" value="Pret" style="swimlane;fontStyle=0;align=center;verticalAlign=top;childLayout=stackLayout;horizontal=1;startSize=26;horizontalStack=0;resizeParent=1;resizeLast=0;collapsible=1;marginBottom=0;rounded=0;shadow=0;strokeWidth=1;fillColor=#6a00ff;strokeColor=#3700CC;fontColor=#ffffff;" vertex="1" parent="2GC5Wz971xdl8EIaFPTx-1">
          <mxGeometry x="380" y="690" width="180" height="258" as="geometry">
            <mxRectangle x="550" y="140" width="160" height="26" as="alternateBounds" />
          </mxGeometry>
        </mxCell>
        <mxCell id="2GC5Wz971xdl8EIaFPTx-35" value="id" style="text;align=left;verticalAlign=top;spacingLeft=4;spacingRight=4;overflow=hidden;rotatable=0;points=[[0,0.5],[1,0.5]];portConstraint=eastwest;fillColor=#ffff88;strokeColor=#36393d;" vertex="1" parent="2GC5Wz971xdl8EIaFPTx-34">
          <mxGeometry y="26" width="180" height="24" as="geometry" />
        </mxCell>
        <mxCell id="2GC5Wz971xdl8EIaFPTx-36" value="date" style="text;align=left;verticalAlign=top;spacingLeft=4;spacingRight=4;overflow=hidden;rotatable=0;points=[[0,0.5],[1,0.5]];portConstraint=eastwest;rounded=0;shadow=0;html=0;" vertex="1" parent="2GC5Wz971xdl8EIaFPTx-34">
          <mxGeometry y="50" width="180" height="26" as="geometry" />
        </mxCell>
        <mxCell id="2GC5Wz971xdl8EIaFPTx-37" value="echeance" style="text;align=left;verticalAlign=top;spacingLeft=4;spacingRight=4;overflow=hidden;rotatable=0;points=[[0,0.5],[1,0.5]];portConstraint=eastwest;rounded=0;shadow=0;html=0;" vertex="1" parent="2GC5Wz971xdl8EIaFPTx-34">
          <mxGeometry y="76" width="180" height="26" as="geometry" />
        </mxCell>
        <mxCell id="2GC5Wz971xdl8EIaFPTx-38" value="période(=1 pour 2021)" style="text;align=left;verticalAlign=top;spacingLeft=4;spacingRight=4;overflow=hidden;rotatable=0;points=[[0,0.5],[1,0.5]];portConstraint=eastwest;rounded=0;shadow=0;html=0;" vertex="1" parent="2GC5Wz971xdl8EIaFPTx-34">
          <mxGeometry y="102" width="180" height="26" as="geometry" />
        </mxCell>
        <mxCell id="2GC5Wz971xdl8EIaFPTx-39" value="montant" style="text;align=left;verticalAlign=top;spacingLeft=4;spacingRight=4;overflow=hidden;rotatable=0;points=[[0,0.5],[1,0.5]];portConstraint=eastwest;rounded=0;shadow=0;html=0;" vertex="1" parent="2GC5Wz971xdl8EIaFPTx-34">
          <mxGeometry y="128" width="180" height="26" as="geometry" />
        </mxCell>
        <mxCell id="2GC5Wz971xdl8EIaFPTx-40" value="type(sante/autres)" style="text;align=left;verticalAlign=top;spacingLeft=4;spacingRight=4;overflow=hidden;rotatable=0;points=[[0,0.5],[1,0.5]];portConstraint=eastwest;rounded=0;shadow=0;html=0;" vertex="1" parent="2GC5Wz971xdl8EIaFPTx-34">
          <mxGeometry y="154" width="180" height="26" as="geometry" />
        </mxCell>
        <mxCell id="2GC5Wz971xdl8EIaFPTx-41" value="RIB" style="text;align=left;verticalAlign=top;spacingLeft=4;spacingRight=4;overflow=hidden;rotatable=0;points=[[0,0.5],[1,0.5]];portConstraint=eastwest;rounded=0;shadow=0;html=0;" vertex="1" parent="2GC5Wz971xdl8EIaFPTx-34">
          <mxGeometry y="180" width="180" height="26" as="geometry" />
        </mxCell>
        <mxCell id="2GC5Wz971xdl8EIaFPTx-42" value="commentaire" style="text;align=left;verticalAlign=top;spacingLeft=4;spacingRight=4;overflow=hidden;rotatable=0;points=[[0,0.5],[1,0.5]];portConstraint=eastwest;rounded=0;shadow=0;html=0;" vertex="1" parent="2GC5Wz971xdl8EIaFPTx-34">
          <mxGeometry y="206" width="180" height="26" as="geometry" />
        </mxCell>
        <mxCell id="2GC5Wz971xdl8EIaFPTx-43" value="statut(traité/pas encore traité)" style="text;align=left;verticalAlign=top;spacingLeft=4;spacingRight=4;overflow=hidden;rotatable=0;points=[[0,0.5],[1,0.5]];portConstraint=eastwest;rounded=0;shadow=0;html=0;" vertex="1" parent="2GC5Wz971xdl8EIaFPTx-34">
          <mxGeometry y="232" width="180" height="26" as="geometry" />
        </mxCell>
        <mxCell id="2GC5Wz971xdl8EIaFPTx-44" value="" style="endArrow=open;shadow=0;strokeWidth=1;rounded=0;endFill=1;edgeStyle=elbowEdgeStyle;elbow=vertical;entryX=0.5;entryY=0;entryDx=0;entryDy=0;" edge="1" parent="2GC5Wz971xdl8EIaFPTx-1" source="2GC5Wz971xdl8EIaFPTx-11" target="2GC5Wz971xdl8EIaFPTx-34">
          <mxGeometry x="0.5" y="41" relative="1" as="geometry">
            <mxPoint x="520" y="530" as="sourcePoint" />
            <mxPoint x="550" y="752" as="targetPoint" />
            <mxPoint x="-40" y="32" as="offset" />
          </mxGeometry>
        </mxCell>
        <mxCell id="2GC5Wz971xdl8EIaFPTx-45" value="1" style="resizable=0;align=left;verticalAlign=bottom;labelBackgroundColor=none;fontSize=12;" connectable="0" vertex="1" parent="2GC5Wz971xdl8EIaFPTx-44">
          <mxGeometry x="-1" relative="1" as="geometry">
            <mxPoint y="20" as="offset" />
          </mxGeometry>
        </mxCell>
        <mxCell id="2GC5Wz971xdl8EIaFPTx-46" value="*" style="resizable=0;align=right;verticalAlign=bottom;labelBackgroundColor=none;fontSize=23;" connectable="0" vertex="1" parent="2GC5Wz971xdl8EIaFPTx-44">
          <mxGeometry x="1" relative="1" as="geometry">
            <mxPoint x="-7" y="4" as="offset" />
          </mxGeometry>
        </mxCell>
        <mxCell id="2GC5Wz971xdl8EIaFPTx-47" value="demande" style="text;html=1;resizable=0;points=[];;align=center;verticalAlign=middle;labelBackgroundColor=none;rounded=0;shadow=0;strokeWidth=1;fontSize=12;" vertex="1" connectable="0" parent="2GC5Wz971xdl8EIaFPTx-44">
          <mxGeometry x="0.5" y="49" relative="1" as="geometry">
            <mxPoint x="21" y="-12.94" as="offset" />
          </mxGeometry>
        </mxCell>
        <mxCell id="2GC5Wz971xdl8EIaFPTx-48" value="Login" style="swimlane;fontStyle=0;align=center;verticalAlign=top;childLayout=stackLayout;horizontal=1;startSize=26;horizontalStack=0;resizeParent=1;resizeLast=0;collapsible=1;marginBottom=0;rounded=0;shadow=0;strokeWidth=1;fillColor=#b1ddf0;strokeColor=#10739e;" vertex="1" parent="2GC5Wz971xdl8EIaFPTx-1">
          <mxGeometry x="160" y="700" width="160" height="106" as="geometry">
            <mxRectangle x="550" y="140" width="160" height="26" as="alternateBounds" />
          </mxGeometry>
        </mxCell>
        <mxCell id="2GC5Wz971xdl8EIaFPTx-49" value="id" style="text;align=left;verticalAlign=top;spacingLeft=4;spacingRight=4;overflow=hidden;rotatable=0;points=[[0,0.5],[1,0.5]];portConstraint=eastwest;fillColor=#ffff88;strokeColor=#36393d;" vertex="1" parent="2GC5Wz971xdl8EIaFPTx-48">
          <mxGeometry y="26" width="160" height="24" as="geometry" />
        </mxCell>
        <mxCell id="2GC5Wz971xdl8EIaFPTx-50" value="email" style="text;align=left;verticalAlign=top;spacingLeft=4;spacingRight=4;overflow=hidden;rotatable=0;points=[[0,0.5],[1,0.5]];portConstraint=eastwest;rounded=0;shadow=0;html=0;" vertex="1" parent="2GC5Wz971xdl8EIaFPTx-48">
          <mxGeometry y="50" width="160" height="26" as="geometry" />
        </mxCell>
        <mxCell id="2GC5Wz971xdl8EIaFPTx-51" value="password" style="text;align=left;verticalAlign=top;spacingLeft=4;spacingRight=4;overflow=hidden;rotatable=0;points=[[0,0.5],[1,0.5]];portConstraint=eastwest;rounded=0;shadow=0;html=0;" vertex="1" parent="2GC5Wz971xdl8EIaFPTx-48">
          <mxGeometry y="76" width="160" height="26" as="geometry" />
        </mxCell>
        <mxCell id="2GC5Wz971xdl8EIaFPTx-52" value="" style="endArrow=open;shadow=0;strokeWidth=1;rounded=0;endFill=1;edgeStyle=elbowEdgeStyle;elbow=vertical;entryX=0.5;entryY=0;entryDx=0;entryDy=0;" edge="1" parent="2GC5Wz971xdl8EIaFPTx-1" source="2GC5Wz971xdl8EIaFPTx-11" target="2GC5Wz971xdl8EIaFPTx-48">
          <mxGeometry x="0.5" y="41" relative="1" as="geometry">
            <mxPoint x="590" y="494.5" as="sourcePoint" />
            <mxPoint x="970" y="450" as="targetPoint" />
            <mxPoint x="-40" y="32" as="offset" />
            <Array as="points">
              <mxPoint x="310" y="530" />
              <mxPoint x="670" y="490" />
              <mxPoint x="660" y="490" />
            </Array>
          </mxGeometry>
        </mxCell>
        <mxCell id="2GC5Wz971xdl8EIaFPTx-53" value="1" style="resizable=0;align=left;verticalAlign=bottom;labelBackgroundColor=none;fontSize=12;" connectable="0" vertex="1" parent="2GC5Wz971xdl8EIaFPTx-52">
          <mxGeometry x="-1" relative="1" as="geometry">
            <mxPoint x="-20" y="-4.5" as="offset" />
          </mxGeometry>
        </mxCell>
        <mxCell id="2GC5Wz971xdl8EIaFPTx-54" value="1" style="resizable=0;align=right;verticalAlign=bottom;labelBackgroundColor=none;fontSize=12;" connectable="0" vertex="1" parent="2GC5Wz971xdl8EIaFPTx-52">
          <mxGeometry x="1" relative="1" as="geometry">
            <mxPoint x="-7" y="4" as="offset" />
          </mxGeometry>
        </mxCell>
        <mxCell id="2GC5Wz971xdl8EIaFPTx-55" value="possede" style="text;html=1;resizable=0;points=[];;align=center;verticalAlign=middle;labelBackgroundColor=none;rounded=0;shadow=0;strokeWidth=1;fontSize=12;" vertex="1" connectable="0" parent="2GC5Wz971xdl8EIaFPTx-52">
          <mxGeometry x="0.5" y="49" relative="1" as="geometry">
            <mxPoint x="61" y="-73" as="offset" />
          </mxGeometry>
        </mxCell>
        <mxCell id="2GC5Wz971xdl8EIaFPTx-57" value="Media" style="swimlane;fontStyle=0;align=center;verticalAlign=top;childLayout=stackLayout;horizontal=1;startSize=26;horizontalStack=0;resizeParent=1;resizeLast=0;collapsible=1;marginBottom=0;rounded=0;shadow=0;strokeWidth=1;fillColor=#60a917;strokeColor=#2D7600;fontColor=#ffffff;" vertex="1" parent="2GC5Wz971xdl8EIaFPTx-1">
          <mxGeometry x="980" y="710" width="160" height="106" as="geometry">
            <mxRectangle x="550" y="140" width="160" height="26" as="alternateBounds" />
          </mxGeometry>
        </mxCell>
        <mxCell id="2GC5Wz971xdl8EIaFPTx-58" value="id" style="text;align=left;verticalAlign=top;spacingLeft=4;spacingRight=4;overflow=hidden;rotatable=0;points=[[0,0.5],[1,0.5]];portConstraint=eastwest;fillColor=#ffff88;strokeColor=#36393d;" vertex="1" parent="2GC5Wz971xdl8EIaFPTx-57">
          <mxGeometry y="26" width="160" height="24" as="geometry" />
        </mxCell>
        <mxCell id="2GC5Wz971xdl8EIaFPTx-59" value="piece_identite" style="text;align=left;verticalAlign=top;spacingLeft=4;spacingRight=4;overflow=hidden;rotatable=0;points=[[0,0.5],[1,0.5]];portConstraint=eastwest;rounded=0;shadow=0;html=0;" vertex="1" parent="2GC5Wz971xdl8EIaFPTx-57">
          <mxGeometry y="50" width="160" height="26" as="geometry" />
        </mxCell>
        <mxCell id="2GC5Wz971xdl8EIaFPTx-60" value="justificatif_pret" style="text;align=left;verticalAlign=top;spacingLeft=4;spacingRight=4;overflow=hidden;rotatable=0;points=[[0,0.5],[1,0.5]];portConstraint=eastwest;rounded=0;shadow=0;html=0;" vertex="1" parent="2GC5Wz971xdl8EIaFPTx-57">
          <mxGeometry y="76" width="160" height="26" as="geometry" />
        </mxCell>
        <mxCell id="2GC5Wz971xdl8EIaFPTx-61" value="" style="endArrow=open;shadow=0;strokeWidth=1;rounded=0;endFill=1;edgeStyle=elbowEdgeStyle;elbow=vertical;" edge="1" parent="2GC5Wz971xdl8EIaFPTx-1" source="2GC5Wz971xdl8EIaFPTx-34">
          <mxGeometry x="0.5" y="41" relative="1" as="geometry">
            <mxPoint x="421" y="905" as="sourcePoint" />
            <mxPoint x="1051" y="819" as="targetPoint" />
            <mxPoint x="-40" y="32" as="offset" />
            <Array as="points">
              <mxPoint x="610" y="960" />
              <mxPoint x="1051" y="800" />
              <mxPoint x="461" y="1010" />
              <mxPoint x="460" y="990" />
              <mxPoint x="560" y="1180" />
            </Array>
          </mxGeometry>
        </mxCell>
        <mxCell id="2GC5Wz971xdl8EIaFPTx-62" value="1" style="resizable=0;align=left;verticalAlign=bottom;labelBackgroundColor=none;fontSize=12;" connectable="0" vertex="1" parent="2GC5Wz971xdl8EIaFPTx-61">
          <mxGeometry x="-1" relative="1" as="geometry">
            <mxPoint x="-21" y="25" as="offset" />
          </mxGeometry>
        </mxCell>
        <mxCell id="2GC5Wz971xdl8EIaFPTx-63" value="1" style="resizable=0;align=right;verticalAlign=bottom;labelBackgroundColor=none;fontSize=12;" connectable="0" vertex="1" parent="2GC5Wz971xdl8EIaFPTx-61">
          <mxGeometry x="1" relative="1" as="geometry">
            <mxPoint x="-7" y="4" as="offset" />
          </mxGeometry>
        </mxCell>
        <mxCell id="2GC5Wz971xdl8EIaFPTx-64" value="concerne" style="text;html=1;resizable=0;points=[];;align=center;verticalAlign=middle;labelBackgroundColor=none;rounded=0;shadow=0;strokeWidth=1;fontSize=12;" vertex="1" connectable="0" parent="2GC5Wz971xdl8EIaFPTx-61">
          <mxGeometry x="0.5" y="49" relative="1" as="geometry">
            <mxPoint x="-80.04" y="-14.04" as="offset" />
          </mxGeometry>
        </mxCell>
        <mxCell id="2GC5Wz971xdl8EIaFPTx-65" value=" Remboursement" style="swimlane;fontStyle=0;align=center;verticalAlign=top;childLayout=stackLayout;horizontal=1;startSize=26;horizontalStack=0;resizeParent=1;resizeLast=0;collapsible=1;marginBottom=0;rounded=0;shadow=0;strokeWidth=1;fillColor=#0050ef;strokeColor=#001DBC;fontColor=#ffffff;" vertex="1" parent="2GC5Wz971xdl8EIaFPTx-1">
          <mxGeometry x="730" y="710" width="160" height="206" as="geometry">
            <mxRectangle x="550" y="140" width="160" height="26" as="alternateBounds" />
          </mxGeometry>
        </mxCell>
        <mxCell id="2GC5Wz971xdl8EIaFPTx-66" value="id" style="text;align=left;verticalAlign=top;spacingLeft=4;spacingRight=4;overflow=hidden;rotatable=0;points=[[0,0.5],[1,0.5]];portConstraint=eastwest;fillColor=#ffff88;strokeColor=#36393d;" vertex="1" parent="2GC5Wz971xdl8EIaFPTx-65">
          <mxGeometry y="26" width="160" height="24" as="geometry" />
        </mxCell>
        <mxCell id="2GC5Wz971xdl8EIaFPTx-67" value="montant" style="text;align=left;verticalAlign=top;spacingLeft=4;spacingRight=4;overflow=hidden;rotatable=0;points=[[0,0.5],[1,0.5]];portConstraint=eastwest;rounded=0;shadow=0;html=0;" vertex="1" parent="2GC5Wz971xdl8EIaFPTx-65">
          <mxGeometry y="50" width="160" height="26" as="geometry" />
        </mxCell>
        <mxCell id="2GC5Wz971xdl8EIaFPTx-68" value="date(automatique)" style="text;align=left;verticalAlign=top;spacingLeft=4;spacingRight=4;overflow=hidden;rotatable=0;points=[[0,0.5],[1,0.5]];portConstraint=eastwest;rounded=0;shadow=0;html=0;" vertex="1" parent="2GC5Wz971xdl8EIaFPTx-65">
          <mxGeometry y="76" width="160" height="26" as="geometry" />
        </mxCell>
        <mxCell id="2GC5Wz971xdl8EIaFPTx-69" value="période(=1 pour 2021)" style="text;align=left;verticalAlign=top;spacingLeft=4;spacingRight=4;overflow=hidden;rotatable=0;points=[[0,0.5],[1,0.5]];portConstraint=eastwest;rounded=0;shadow=0;html=0;" vertex="1" parent="2GC5Wz971xdl8EIaFPTx-65">
          <mxGeometry y="102" width="160" height="26" as="geometry" />
        </mxCell>
        <mxCell id="2GC5Wz971xdl8EIaFPTx-70" value="type(entier/partiel)" style="text;align=left;verticalAlign=top;spacingLeft=4;spacingRight=4;overflow=hidden;rotatable=0;points=[[0,0.5],[1,0.5]];portConstraint=eastwest;rounded=0;shadow=0;html=0;" vertex="1" parent="2GC5Wz971xdl8EIaFPTx-65">
          <mxGeometry y="128" width="160" height="26" as="geometry" />
        </mxCell>
        <mxCell id="2GC5Wz971xdl8EIaFPTx-71" value="justificatif(fichier)" style="text;align=left;verticalAlign=top;spacingLeft=4;spacingRight=4;overflow=hidden;rotatable=0;points=[[0,0.5],[1,0.5]];portConstraint=eastwest;rounded=0;shadow=0;html=0;" vertex="1" parent="2GC5Wz971xdl8EIaFPTx-65">
          <mxGeometry y="154" width="160" height="26" as="geometry" />
        </mxCell>
        <mxCell id="2GC5Wz971xdl8EIaFPTx-72" value="statut(traite/pas encore)" style="text;align=left;verticalAlign=top;spacingLeft=4;spacingRight=4;overflow=hidden;rotatable=0;points=[[0,0.5],[1,0.5]];portConstraint=eastwest;rounded=0;shadow=0;html=0;" vertex="1" parent="2GC5Wz971xdl8EIaFPTx-65">
          <mxGeometry y="180" width="160" height="26" as="geometry" />
        </mxCell>
        <mxCell id="2GC5Wz971xdl8EIaFPTx-73" value="" style="endArrow=open;shadow=0;strokeWidth=1;rounded=0;endFill=1;edgeStyle=elbowEdgeStyle;elbow=vertical;entryX=0.5;entryY=0;entryDx=0;entryDy=0;exitX=1;exitY=1;exitDx=0;exitDy=0;" edge="1" parent="2GC5Wz971xdl8EIaFPTx-1" source="2GC5Wz971xdl8EIaFPTx-11" target="2GC5Wz971xdl8EIaFPTx-65">
          <mxGeometry x="0.5" y="41" relative="1" as="geometry">
            <mxPoint x="580" y="530" as="sourcePoint" />
            <mxPoint x="800" y="772" as="targetPoint" />
            <mxPoint x="-40" y="32" as="offset" />
            <Array as="points">
              <mxPoint x="730" y="570" />
            </Array>
          </mxGeometry>
        </mxCell>
        <mxCell id="2GC5Wz971xdl8EIaFPTx-74" value="1" style="resizable=0;align=left;verticalAlign=bottom;labelBackgroundColor=none;fontSize=12;" connectable="0" vertex="1" parent="2GC5Wz971xdl8EIaFPTx-73">
          <mxGeometry x="-1" relative="1" as="geometry">
            <mxPoint x="10" y="5" as="offset" />
          </mxGeometry>
        </mxCell>
        <mxCell id="2GC5Wz971xdl8EIaFPTx-75" value="*" style="resizable=0;align=right;verticalAlign=bottom;labelBackgroundColor=none;fontSize=23;" connectable="0" vertex="1" parent="2GC5Wz971xdl8EIaFPTx-73">
          <mxGeometry x="1" relative="1" as="geometry">
            <mxPoint x="-7" y="4" as="offset" />
          </mxGeometry>
        </mxCell>
        <mxCell id="2GC5Wz971xdl8EIaFPTx-76" value="concerne" style="text;html=1;resizable=0;points=[];;align=center;verticalAlign=middle;labelBackgroundColor=none;rounded=0;shadow=0;strokeWidth=1;fontSize=12;" vertex="1" connectable="0" parent="2GC5Wz971xdl8EIaFPTx-73">
          <mxGeometry x="0.5" y="49" relative="1" as="geometry">
            <mxPoint x="-149" y="-22.65" as="offset" />
          </mxGeometry>
        </mxCell>
        <mxCell id="2GC5Wz971xdl8EIaFPTx-77" value="concerne" style="text;html=1;resizable=0;points=[];;align=center;verticalAlign=middle;labelBackgroundColor=none;rounded=0;shadow=0;strokeWidth=1;fontSize=12;" vertex="1" connectable="0" parent="2GC5Wz971xdl8EIaFPTx-73">
          <mxGeometry x="0.5" y="49" relative="1" as="geometry">
            <mxPoint x="161" y="-7.649999999999999" as="offset" />
          </mxGeometry>
        </mxCell>
        <mxCell id="2GC5Wz971xdl8EIaFPTx-100" value="" style="endArrow=open;shadow=0;strokeWidth=1;rounded=0;endFill=1;edgeStyle=elbowEdgeStyle;elbow=vertical;entryX=0.25;entryY=0;entryDx=0;entryDy=0;" edge="1" parent="2GC5Wz971xdl8EIaFPTx-1" source="2GC5Wz971xdl8EIaFPTx-17" target="2GC5Wz971xdl8EIaFPTx-48">
          <mxGeometry x="0.5" y="41" relative="1" as="geometry">
            <mxPoint x="160" y="380" as="sourcePoint" />
            <mxPoint x="250" y="690" as="targetPoint" />
            <mxPoint x="-40" y="32" as="offset" />
            <Array as="points">
              <mxPoint x="170" y="640" />
              <mxPoint x="190" y="420" />
              <mxPoint x="230" y="500" />
              <mxPoint x="220" y="610" />
              <mxPoint x="500" y="530" />
              <mxPoint x="680" y="500" />
              <mxPoint x="670" y="500" />
            </Array>
          </mxGeometry>
        </mxCell>
        <mxCell id="2GC5Wz971xdl8EIaFPTx-101" value="1" style="resizable=0;align=left;verticalAlign=bottom;labelBackgroundColor=none;fontSize=12;" connectable="0" vertex="1" parent="2GC5Wz971xdl8EIaFPTx-100">
          <mxGeometry x="-1" relative="1" as="geometry">
            <mxPoint y="20" as="offset" />
          </mxGeometry>
        </mxCell>
        <mxCell id="2GC5Wz971xdl8EIaFPTx-102" value="1" style="resizable=0;align=right;verticalAlign=bottom;labelBackgroundColor=none;fontSize=12;" connectable="0" vertex="1" parent="2GC5Wz971xdl8EIaFPTx-100">
          <mxGeometry x="1" relative="1" as="geometry">
            <mxPoint x="-7" y="4" as="offset" />
          </mxGeometry>
        </mxCell>
        <mxCell id="2GC5Wz971xdl8EIaFPTx-104" value="possede" style="text;html=1;resizable=0;points=[];;align=center;verticalAlign=middle;labelBackgroundColor=none;rounded=0;shadow=0;strokeWidth=1;fontSize=12;" vertex="1" connectable="0" parent="2GC5Wz971xdl8EIaFPTx-100">
          <mxGeometry x="0.5" y="49" relative="1" as="geometry">
            <mxPoint x="-79" y="-14.71" as="offset" />
          </mxGeometry>
        </mxCell>
        <mxCell id="2GC5Wz971xdl8EIaFPTx-115" value="Cotisation" style="swimlane;fontStyle=0;align=center;verticalAlign=top;childLayout=stackLayout;horizontal=1;startSize=26;horizontalStack=0;resizeParent=1;resizeLast=0;collapsible=1;marginBottom=0;rounded=0;shadow=0;strokeWidth=1;fillColor=#0050ef;strokeColor=#001DBC;fontColor=#ffffff;" vertex="1" parent="2GC5Wz971xdl8EIaFPTx-1">
          <mxGeometry x="1250" y="610" width="160" height="180" as="geometry">
            <mxRectangle x="550" y="140" width="160" height="26" as="alternateBounds" />
          </mxGeometry>
        </mxCell>
        <mxCell id="2GC5Wz971xdl8EIaFPTx-116" value="id" style="text;align=left;verticalAlign=top;spacingLeft=4;spacingRight=4;overflow=hidden;rotatable=0;points=[[0,0.5],[1,0.5]];portConstraint=eastwest;fillColor=#ffff88;strokeColor=#36393d;" vertex="1" parent="2GC5Wz971xdl8EIaFPTx-115">
          <mxGeometry y="26" width="160" height="24" as="geometry" />
        </mxCell>
        <mxCell id="2GC5Wz971xdl8EIaFPTx-117" value="montant" style="text;align=left;verticalAlign=top;spacingLeft=4;spacingRight=4;overflow=hidden;rotatable=0;points=[[0,0.5],[1,0.5]];portConstraint=eastwest;rounded=0;shadow=0;html=0;" vertex="1" parent="2GC5Wz971xdl8EIaFPTx-115">
          <mxGeometry y="50" width="160" height="26" as="geometry" />
        </mxCell>
        <mxCell id="2GC5Wz971xdl8EIaFPTx-118" value="période(=1 pour 2021)" style="text;align=left;verticalAlign=top;spacingLeft=4;spacingRight=4;overflow=hidden;rotatable=0;points=[[0,0.5],[1,0.5]];portConstraint=eastwest;rounded=0;shadow=0;html=0;" vertex="1" parent="2GC5Wz971xdl8EIaFPTx-115">
          <mxGeometry y="76" width="160" height="26" as="geometry" />
        </mxCell>
        <mxCell id="2GC5Wz971xdl8EIaFPTx-119" value="date(automatique)" style="text;align=left;verticalAlign=top;spacingLeft=4;spacingRight=4;overflow=hidden;rotatable=0;points=[[0,0.5],[1,0.5]];portConstraint=eastwest;rounded=0;shadow=0;html=0;" vertex="1" parent="2GC5Wz971xdl8EIaFPTx-115">
          <mxGeometry y="102" width="160" height="26" as="geometry" />
        </mxCell>
        <mxCell id="2GC5Wz971xdl8EIaFPTx-120" value="justificatif(fichier)" style="text;align=left;verticalAlign=top;spacingLeft=4;spacingRight=4;overflow=hidden;rotatable=0;points=[[0,0.5],[1,0.5]];portConstraint=eastwest;rounded=0;shadow=0;html=0;" vertex="1" parent="2GC5Wz971xdl8EIaFPTx-115">
          <mxGeometry y="128" width="160" height="26" as="geometry" />
        </mxCell>
        <mxCell id="2GC5Wz971xdl8EIaFPTx-121" value="statut(traite/pas encore)" style="text;align=left;verticalAlign=top;spacingLeft=4;spacingRight=4;overflow=hidden;rotatable=0;points=[[0,0.5],[1,0.5]];portConstraint=eastwest;rounded=0;shadow=0;html=0;" vertex="1" parent="2GC5Wz971xdl8EIaFPTx-115">
          <mxGeometry y="154" width="160" height="26" as="geometry" />
        </mxCell>
        <mxCell id="2GC5Wz971xdl8EIaFPTx-122" value="" style="endArrow=open;shadow=0;strokeWidth=1;rounded=0;endFill=1;edgeStyle=elbowEdgeStyle;elbow=vertical;entryX=0.5;entryY=0;entryDx=0;entryDy=0;" edge="1" parent="2GC5Wz971xdl8EIaFPTx-1" source="2GC5Wz971xdl8EIaFPTx-11" target="2GC5Wz971xdl8EIaFPTx-115">
          <mxGeometry x="0.5" y="41" relative="1" as="geometry">
            <mxPoint x="920" y="550" as="sourcePoint" />
            <mxPoint x="1071" y="772" as="targetPoint" />
            <mxPoint x="-40" y="32" as="offset" />
            <Array as="points">
              <mxPoint x="840" y="530" />
              <mxPoint x="1170" y="570" />
              <mxPoint x="1030" y="540" />
              <mxPoint x="1140" y="550" />
              <mxPoint x="1040" y="550" />
              <mxPoint x="1001" y="570" />
            </Array>
          </mxGeometry>
        </mxCell>
        <mxCell id="2GC5Wz971xdl8EIaFPTx-125" value="Réclamation" style="swimlane;fontStyle=0;align=center;verticalAlign=top;childLayout=stackLayout;horizontal=1;startSize=26;horizontalStack=0;resizeParent=1;resizeLast=0;collapsible=1;marginBottom=0;rounded=0;shadow=0;strokeWidth=1;fillColor=#bac8d3;strokeColor=#23445d;" vertex="1" parent="2GC5Wz971xdl8EIaFPTx-1">
          <mxGeometry x="1600" y="690" width="160" height="132" as="geometry">
            <mxRectangle x="550" y="140" width="160" height="26" as="alternateBounds" />
          </mxGeometry>
        </mxCell>
        <mxCell id="2GC5Wz971xdl8EIaFPTx-126" value="id" style="text;align=left;verticalAlign=top;spacingLeft=4;spacingRight=4;overflow=hidden;rotatable=0;points=[[0,0.5],[1,0.5]];portConstraint=eastwest;fillColor=#ffff88;strokeColor=#36393d;" vertex="1" parent="2GC5Wz971xdl8EIaFPTx-125">
          <mxGeometry y="26" width="160" height="24" as="geometry" />
        </mxCell>
        <mxCell id="2GC5Wz971xdl8EIaFPTx-127" value="date(automatique)" style="text;align=left;verticalAlign=top;spacingLeft=4;spacingRight=4;overflow=hidden;rotatable=0;points=[[0,0.5],[1,0.5]];portConstraint=eastwest;rounded=0;shadow=0;html=0;" vertex="1" parent="2GC5Wz971xdl8EIaFPTx-125">
          <mxGeometry y="50" width="160" height="28" as="geometry" />
        </mxCell>
        <mxCell id="2GC5Wz971xdl8EIaFPTx-128" value="description" style="text;align=left;verticalAlign=top;spacingLeft=4;spacingRight=4;overflow=hidden;rotatable=0;points=[[0,0.5],[1,0.5]];portConstraint=eastwest;rounded=0;shadow=0;html=0;" vertex="1" parent="2GC5Wz971xdl8EIaFPTx-125">
          <mxGeometry y="78" width="160" height="28" as="geometry" />
        </mxCell>
        <mxCell id="2GC5Wz971xdl8EIaFPTx-129" value="statut(traité/non traité)" style="text;align=left;verticalAlign=top;spacingLeft=4;spacingRight=4;overflow=hidden;rotatable=0;points=[[0,0.5],[1,0.5]];portConstraint=eastwest;rounded=0;shadow=0;html=0;" vertex="1" parent="2GC5Wz971xdl8EIaFPTx-125">
          <mxGeometry y="106" width="160" height="26" as="geometry" />
        </mxCell>
        <mxCell id="2GC5Wz971xdl8EIaFPTx-130" value="" style="endArrow=open;shadow=0;strokeWidth=1;rounded=0;endFill=1;edgeStyle=elbowEdgeStyle;elbow=vertical;entryX=0.5;entryY=0;entryDx=0;entryDy=0;exitX=0.58;exitY=0.002;exitDx=0;exitDy=0;exitPerimeter=0;" edge="1" parent="2GC5Wz971xdl8EIaFPTx-1" source="2GC5Wz971xdl8EIaFPTx-11" target="2GC5Wz971xdl8EIaFPTx-125">
          <mxGeometry x="0.5" y="41" relative="1" as="geometry">
            <mxPoint x="870" y="450" as="sourcePoint" />
            <mxPoint x="740" y="742" as="targetPoint" />
            <mxPoint x="-40" y="32" as="offset" />
            <Array as="points">
              <mxPoint x="1370" y="400" />
              <mxPoint x="1540" y="450" />
              <mxPoint x="1530" y="480" />
              <mxPoint x="1280" y="450" />
              <mxPoint x="700" y="480" />
            </Array>
          </mxGeometry>
        </mxCell>
        <mxCell id="2GC5Wz971xdl8EIaFPTx-131" value="1" style="resizable=0;align=left;verticalAlign=bottom;labelBackgroundColor=none;fontSize=12;" connectable="0" vertex="1" parent="2GC5Wz971xdl8EIaFPTx-130">
          <mxGeometry x="-1" relative="1" as="geometry">
            <mxPoint x="10" as="offset" />
          </mxGeometry>
        </mxCell>
        <mxCell id="2GC5Wz971xdl8EIaFPTx-132" value="*" style="resizable=0;align=right;verticalAlign=bottom;labelBackgroundColor=none;fontSize=25;" connectable="0" vertex="1" parent="2GC5Wz971xdl8EIaFPTx-130">
          <mxGeometry x="1" relative="1" as="geometry">
            <mxPoint x="-7" y="-10.18" as="offset" />
          </mxGeometry>
        </mxCell>
        <mxCell id="2GC5Wz971xdl8EIaFPTx-133" value="concerne" style="text;html=1;resizable=0;points=[];;align=center;verticalAlign=middle;labelBackgroundColor=none;rounded=0;shadow=0;strokeWidth=1;fontSize=12;" vertex="1" connectable="0" parent="2GC5Wz971xdl8EIaFPTx-130">
          <mxGeometry x="0.5" y="49" relative="1" as="geometry">
            <mxPoint x="-390" y="39" as="offset" />
          </mxGeometry>
        </mxCell>
      </root>
    </mxGraphModel>
  </diagram>
</mxfile>
